<svg width="253" height="428" viewBox="0 0 253 428" fill="none" xmlns="http://www.w3.org/2000/svg">
<path fill-rule="evenodd" clip-rule="evenodd" d="M191.828 410.245C191.557 410.516 192.005 410.333 192.005 410.333C192.813 410.516 192.005 410.062 191.828 410.245ZM191.109 410.062C192.005 410.062 191.375 410.062 191.646 410.245C190.75 410.245 191.375 410.245 191.109 410.062ZM191.109 410.062L191.016 409.974L155.636 400.552C151.771 399.385 147.729 398.667 143.781 397.5L131.745 394.448C107.859 388.521 83.9688 382.151 59.9897 376.229L36.1042 370.125C32.0626 369.135 28.198 368.151 24.2501 367.073C22.3647 366.625 20.1147 366.083 18.323 365.547C15.8959 364.828 13.1095 364.646 11.3178 363.214L10.4167 362.224C8.80216 360.427 8.44279 357.734 7.90112 355.401L7.36466 354.146C7.00529 355.135 6.82821 356.302 6.91675 357.38C7.45321 360.609 8.17196 362.854 10.9584 364.557C12.3022 365.365 21.1042 367.339 22.8126 367.792C41.4011 372.547 187.875 409.974 191.109 410.062ZM175.839 391.125C172.787 393.099 137.224 384.125 131.745 382.87C117.469 379.458 103.276 375.958 89.0001 372.365C74.7188 368.776 60.6199 365.276 46.4324 361.687C39.2449 359.891 32.2397 358.094 24.8751 356.568C15.5365 354.687 16.3438 357.286 14.2813 358.187C8.17196 360.969 5.11987 347.323 19.7553 347.865C22.9897 347.953 28.5574 348.672 31.3438 349.656C34.6667 351.005 37.9897 352.083 41.4011 352.979L94.1147 366.625C106.958 369.943 159.406 383.318 172.068 388.432C173.688 389.151 176.021 389.87 175.839 391.125ZM215.266 388.073C215.083 388.974 214.099 390.5 213.74 391.573C213.292 392.833 212.662 394 212.214 395.255C211.224 397.859 210.505 400.464 209.875 403.062C208.797 407.641 207.901 413.927 209.969 418.5C210.328 419.042 210.594 419.667 210.865 420.208C211.406 420.208 211.943 420.12 212.479 419.937C213.38 419.667 213.557 419.849 213.651 419.042C210.057 418.052 211.047 406.474 211.672 402.703C212.214 399.203 213.828 392.74 217.24 391.125C218.141 390.677 218.406 390.859 218.859 391.573C214.188 391.573 212.479 404.141 212.479 407.729C212.479 410.516 212.302 413.568 213.021 416.26C213.469 417.964 213.828 418.141 215.625 418.141C216.162 415.807 217.599 414.375 218.766 408.271C219.125 406.562 219.219 404.5 219.484 402.526C219.755 400.464 219.938 398.484 219.938 396.422H220.115C220.115 400.193 220.386 404.677 219.844 408.448C219.755 409.167 219.667 409.526 219.578 410.245C219.396 410.875 219.307 411.5 219.307 412.219H220.026C220.115 411.234 221.193 407.823 221.37 405.49C221.912 400.193 222.542 392.385 219.307 387.807C218.589 386.818 218.047 386.187 216.703 386.906C216.88 386.099 216.974 386.729 217.063 385.922C214.906 384.755 205.656 383.135 202.964 382.51C200.719 381.969 201.344 382.87 199.729 383.047C198.38 383.229 197.037 383.135 195.776 382.687C191.734 381.432 191.557 379.458 190.75 378.922C190.479 378.74 187.693 378.292 187.156 378.203L165.422 373.536C163.896 373.177 163.448 373.891 162.011 374.25C157.339 375.417 150.787 373.354 147.281 372.187C141.354 370.214 141.443 369.047 140.276 368.417L127.615 365.635C125.099 365.005 122.943 364.557 120.432 363.932C118.724 363.479 118.188 363.932 116.839 363.839C112.349 363.661 111.542 361.953 110.37 361.505L88.6407 356.927C87.922 356.75 87.6511 356.568 86.9324 356.839C86.6615 356.927 86.4845 357.109 86.2136 357.198C84.0574 357.734 72.8334 355.224 70.3178 354.505C67.8022 353.786 54.0626 349.656 52.448 348.13C52.0001 347.682 51.4584 347.505 50.922 347.417C45.172 346.068 39.5157 344.271 33.8595 342.656C29.9063 341.49 32.6876 342.479 30.3542 342.208C29.099 342.031 27.7501 342.031 26.4949 341.76C24.6095 341.312 22.7188 340.323 21.4636 340.234C16.7917 339.875 13.7397 337.182 9.16154 340.234C3.68237 344.005 0.447998 351.182 0.447998 357.828C0.447998 360.698 0.989665 363.12 2.24487 364.828C3.05216 365.906 5.47925 368.505 6.82821 368.958C7.36467 369.135 7.90112 369.135 8.53133 369.318L27.7501 374.344C41.7605 377.844 55.5001 381.615 69.6876 385.115C74.448 386.281 78.849 387.536 83.6095 388.703L104.537 394.089C116.208 396.958 127.703 400.193 139.38 403.062C144.047 404.229 148.719 405.49 153.479 406.656C158.24 407.823 162.818 409.167 167.401 410.245C178.714 413.026 190.927 416.167 202.063 419.401C205.12 420.297 206.193 420.656 209.609 420.656C209.609 419.849 208.083 418.141 207.63 414.734C207.542 414.281 207.365 412.49 207.365 412.219C207.365 411.589 207.453 411.859 207.542 411.141C207.99 405.755 209.156 399.651 211.583 394.896C212.12 393.01 213.651 389.151 215.266 388.073Z" fill="#DBA562"/>
<path fill-rule="evenodd" clip-rule="evenodd" d="M89.8074 252.271C89.6251 252.005 89.6251 252.63 89.6251 251.734C89.8074 252.005 89.7188 251.552 89.8074 252.271ZM89.448 251.375C89.5365 251.464 89.448 251.464 89.448 251.375ZM89.2657 245.094C89.2657 244.641 89.5365 245.094 89.3595 245.094C89.3595 245.094 89.2657 245.63 89.2657 245.094ZM53.8855 346.964C54.422 347.417 60.0782 349.208 61.2501 349.568C68.4324 351.995 78.4011 355.042 85.9428 355.042L90.4376 327.49C91.9636 318.245 93.4011 309.089 94.9272 299.932C96.4532 290.776 97.9792 281.625 99.5053 272.469C99.6876 271.391 99.9532 270.224 100.135 269.146C100.401 267.708 100.76 267.26 100.135 265.917C99.6876 265.016 99.1459 264.208 98.5157 263.49C97.797 262.776 97.172 262.234 96.3647 261.698C93.7553 259.63 89.8074 255.323 89.7188 252.182L89.8959 252.542C89.9845 252.719 89.9845 252.813 90.0782 252.99C90.1667 253.172 90.3438 253.438 90.4376 253.797C91.2449 255.412 92.323 256.938 93.6667 258.198C94.9272 259.453 96.3647 260.62 97.797 261.698C98.4272 262.234 98.3386 262.594 99.5053 262.594C99.4167 261.698 98.9688 260.26 98.698 259.182C97.797 254.875 97.172 252.901 97.797 247.875C99.8647 231 102.651 213.047 105.162 196.172L111.63 151.745C111.807 150.667 111.99 149.412 112.167 148.156C112.438 146.896 112.526 145.552 112.615 144.297C110.37 144.297 108.219 143.755 106.063 143.755L102.021 168.979C100.583 177.505 99.3282 185.854 97.8907 194.292C95.3751 209.281 92.948 226.693 89.9845 241.5C89.8959 242.13 89.8074 242.49 89.6251 243.115L89.0886 244.552C89.0886 241.323 91.6042 225.526 92.1407 222.115C93.3074 214.573 94.474 207.396 95.5522 199.854C97.172 189.083 99.2345 177.505 100.76 166.734L102.469 155.693C104.896 141.151 106.958 126.073 109.385 111.531L115.76 70.1563C115.938 69.2605 116.12 68.448 116.391 67.5521C105.432 73.9271 107.859 68.3594 106.151 78.6823C103.099 96.4532 99.5938 115.125 96.1824 132.807C91.6042 156.771 87.2917 180.828 82.6199 204.792L62.5053 312.859C61.3386 318.87 60.172 324.885 59.0938 330.99C58.5522 334.042 58.0157 337.094 57.474 340.146C57.0261 343.287 57.297 346.787 53.8855 346.964Z" fill="#A66C2F"/>
<path fill-rule="evenodd" clip-rule="evenodd" d="M141.625 367.25C141.625 368.958 154.198 372.635 158.958 372.635C159.766 372.635 160.661 372.547 161.474 372.365C162.281 372.099 163.089 371.917 163.807 371.828C163.807 369.583 165.333 362.313 165.781 359.26L169.734 334.13C170.005 332.693 171.438 322.464 171.438 321.026C170.005 320.667 167.667 316.99 167.13 315.911C165.964 313.667 165.151 311.333 164.703 308.818C164.438 305.948 164.703 303.073 165.333 300.292C165.87 297.599 166.229 294.818 166.771 292.214L169.552 276.146C170.453 270.76 171.438 265.375 172.427 259.901L183.922 195.547C181.766 195.458 173.328 193.75 172.25 195.187C171.349 196.443 170.182 204.432 169.823 206.318L163.807 240.781C163.177 244.734 162.547 248.411 161.74 252.271C160.932 256.13 160.484 259.901 159.766 263.76C159.047 267.62 158.51 271.568 157.792 275.25C156.354 282.792 155.188 290.776 153.75 298.229C153.031 301.906 152.49 305.948 151.771 309.719C149.526 320.849 147.823 333.146 145.667 344.182L142.073 364.198C141.802 365.276 141.625 366.266 141.625 367.25Z" fill="#A66C2F"/>
<path fill-rule="evenodd" clip-rule="evenodd" d="M243.375 15.3125C244.724 14.2396 245.531 12.0833 246.516 11.1875C246.25 13.5208 245.62 16.2135 245.26 18.6354L241.76 40.625C234.036 89.9896 226.943 139.448 219.307 188.812C218.859 191.417 210.776 247.068 210.328 247.875C210.328 247.875 210.234 247.964 210.328 247.964L210.146 248.682C210.057 249.13 210.057 249.219 209.969 249.76C209.875 250.479 209.786 251.198 209.698 251.911L203.141 297.87C202.333 303.526 201.703 309 200.719 314.651C199.01 325.245 197.484 337.094 195.87 347.953C195.057 353.609 194.25 358.901 193.443 364.557C193.083 366.714 191.557 375.51 191.646 377.125C191.646 379.01 192.635 379.188 193.531 380.177C195.958 380.089 196.583 378.651 196.854 376.495C198.474 363.302 200.896 348.401 202.781 335.208L223.708 194.021C228.375 162.693 233.047 131.281 237.719 99.9531L248.135 29.3177C249.031 23.3021 250.292 14.3281 250.74 8.22394C250.828 6.6979 250.469 6.33852 251.818 5.97915C250.74 5.08331 249.391 4.72394 248.047 4.81248C246.339 4.81248 244.812 4.72394 244.542 6.51561L243.375 15.3125Z" fill="#FEE3C2"/>
<path fill-rule="evenodd" clip-rule="evenodd" d="M25.0574 339.245C26.672 340.146 29.8178 340.146 32.2397 340.146C32.2397 339.156 33.7657 330.542 34.0365 329.464C35.0261 324.255 35.8334 318.87 36.9115 313.578C38.5261 305.5 40.2345 295.536 41.672 287.187L45.5313 266.094C47.9584 252.094 50.8282 237.911 53.2553 223.911L59.0053 192.312C61.0678 181.901 62.7761 171.13 64.8386 160.719C65.5574 157.307 66.099 153.719 66.8178 150.219C67.5365 146.719 68.073 143.219 68.7032 139.719C69.3282 136.219 70.047 132.625 70.5886 129.125C71.2188 125.536 71.9376 122.036 72.474 118.625C74.1824 108.302 76.4272 97.4427 78.224 87.0312L87.922 34.3437C88.6407 30.8437 89.1772 27.3437 89.8074 23.8385C89.9845 22.9427 93.1303 4.72392 93.4897 4.09371C93.849 3.46871 93.849 3.91663 94.1147 3.10933C93.2188 2.11975 92.0522 1.48954 90.7918 1.401C89.8959 8.49475 88.2813 15.8541 87.0209 22.8541C85.7657 29.8541 84.3282 36.9479 82.9792 44.0364C77.4115 72.3073 72.2032 100.312 66.547 128.589C63.7605 142.589 61.0678 156.771 58.2865 170.771C56.9376 177.865 55.5886 184.953 54.1511 191.958C52.7188 198.958 51.547 206.135 50.0209 213.141C48.4949 220.141 47.2397 227.318 45.8907 234.323C44.5417 241.323 43.198 248.323 41.7605 255.323C40.323 262.323 39.0678 269.417 37.6303 276.505C36.1928 283.599 34.8438 290.51 33.5886 297.599L27.3907 329.375C27.1199 331.26 26.4011 337.542 25.0574 339.245Z" fill="#DBA562"/>
<path fill-rule="evenodd" clip-rule="evenodd" d="M113.333 361.24C115.042 359.443 114.865 359.802 115.313 356.75L128.604 271.839C138.12 211.521 147.912 151.297 157.339 90.9791C159.677 75.901 162.01 60.8229 164.438 45.7396C166.141 34.7031 168.208 22.4062 169.375 11.276C169.552 9.56768 169.375 6.87497 170.182 5.53122C171.172 4.27601 171.979 2.83851 172.609 1.40101C171.083 0.682265 167.849 0.416639 167.219 1.22393C166.859 1.67185 164.526 17.9166 164.438 18.3646L160.844 41.4323C159.854 48.7916 158.417 56.8698 157.25 64.3229L153.656 87.3906C151.146 102.38 148.99 118.354 146.474 133.344C145.844 137.203 145.307 140.974 144.677 144.922C141.537 163.953 138.839 183.339 135.698 202.458L132.104 225.526C131.115 232.885 129.5 241.141 128.51 248.594C127.974 252.453 127.344 256.224 126.719 260.083C124.292 275.339 122.047 290.958 119.531 306.036C117.016 321.115 114.771 336.734 112.167 352.083C111.901 353.875 111.448 355.854 111.182 357.646C110.912 359.083 110.552 358.901 111.448 359.979C111.807 360.521 112.526 360.969 113.333 361.24Z" fill="#FEE3C2"/>
<path fill-rule="evenodd" clip-rule="evenodd" d="M113.333 361.24C113.333 361.24 113.427 361.24 113.427 361.328L114.411 361.688C116.208 362.224 118.365 362.406 119.26 360.609C119.713 359.26 119.979 357.917 120.25 356.568C120.88 353.609 121.417 348.401 121.958 345.083C123.125 337.719 124.115 329.375 125.37 322.193L127.974 305.047C130.401 287.906 133.271 270.854 135.698 253.708C136.776 246.167 138.12 238.448 139.109 230.823C140.099 223.193 141.536 215.563 142.521 207.932C143.062 204.162 143.781 200.302 144.229 196.531C144.5 194.646 144.859 192.672 145.125 190.787C146.385 181.542 148.088 171.583 149.437 162.339C149.974 158.385 150.516 154.797 151.146 150.849C154.198 132 156.713 112.521 159.766 93.6719C162.187 78.5938 164.167 62.974 166.682 47.8959C168.208 38.5625 169.463 28.7761 170.99 19.3542C171.26 17.5573 171.62 15.5834 171.891 13.6094L173.505 2.20837C173.146 1.94275 172.875 1.76046 172.516 1.48962C171.891 2.92712 171.083 4.36462 170.094 5.61983C169.193 6.96879 169.463 9.6615 169.286 11.3646C168.115 22.4948 166.141 34.7917 164.344 45.8334C162.01 60.9115 159.677 75.9896 157.25 91.0678C147.911 151.385 138.12 211.615 128.51 271.927L115.224 356.839C114.865 359.802 115.042 359.354 113.333 361.24Z" fill="#DBA562"/>
<path fill-rule="evenodd" clip-rule="evenodd" d="M193.443 379.995C195.057 380.896 196.943 381.344 198.833 381.344C201.437 381.255 201.344 379.729 201.615 377.396C201.885 375.51 202.333 373.625 202.604 371.557L206.552 341.401C209.969 317.703 212.932 293.292 216.344 269.594C219.755 245.901 222.807 221.573 226.224 197.698C227.391 189.802 228.375 181.724 229.453 173.823L233.583 143.938C233.854 141.87 234.125 140.078 234.396 138.01C236.193 126.162 237.625 113.958 239.333 102.021C239.87 98.0678 240.5 94.1198 240.948 90.1719C241.401 86.224 242.12 82.0938 242.656 78.1459C243.646 70.1563 244.901 62.0782 245.891 54.1771L247.505 42.3334C247.687 40.3542 248.047 38.2917 248.312 36.4063L250.828 18.2761C251.187 15.3125 252.354 8.58337 252.354 6.1615L251.818 5.80212C250.469 6.1615 250.828 6.51567 250.74 8.04171C250.292 14.1459 248.943 23.125 248.135 29.1355L237.719 99.7761C233.135 131.193 228.469 162.516 223.708 193.839L202.693 335.026C200.807 348.313 198.292 363.12 196.766 376.318C196.495 378.469 195.87 379.906 193.443 379.995Z" fill="#DBA562"/>
<path fill-rule="evenodd" clip-rule="evenodd" d="M175.839 391.125C176.021 389.87 173.688 389.151 172.068 388.432C159.318 383.229 106.958 369.854 94.1146 366.625L41.4011 352.979C37.9896 352.083 34.6667 351.005 31.3438 349.656C28.6459 348.672 22.9896 347.953 19.7553 347.865C5.20838 347.323 8.17192 361.057 14.2813 358.188C16.3438 357.198 15.5365 354.594 24.875 356.568C32.2396 358.094 39.2448 359.891 46.4323 361.688C60.6198 365.188 74.8073 368.776 89.0001 372.365C103.188 375.958 117.375 379.458 131.656 382.87C137.224 384.125 172.787 393.099 175.839 391.125Z" fill="#FEE3C2"/>
<path fill-rule="evenodd" clip-rule="evenodd" d="M53.8853 347.057C57.2968 346.786 56.9374 343.286 57.4738 340.052C58.0155 337.005 58.552 333.953 59.0936 330.901C60.1718 324.885 61.3384 318.781 62.5051 312.771L82.9791 204.88C87.5624 180.917 91.9634 156.859 96.5416 132.896C99.953 115.214 103.458 96.5417 106.51 78.7708C108.219 68.4479 105.792 74.0156 116.75 67.6406C116.838 67.2813 116.927 66.9219 116.927 66.5677C113.068 65.6667 109.026 65.849 105.344 67.2813C104.354 67.6406 104.083 67.4635 103.906 68.6302C102.469 75.9896 101.213 83.9792 99.7759 91.5156C97.4374 103.365 95.3749 116.203 93.1301 128.141L84.8645 173.734C82.6197 185.854 80.5572 198.417 78.2238 210.354C75.3488 225.255 72.8332 241.141 69.8697 256.042C67.5363 267.979 65.4686 280.547 63.1353 292.661L54.6926 338.349C54.4218 339.786 54.1509 341.401 53.7916 342.839C53.3436 345.349 52.7186 346.875 53.8853 347.057Z" fill="#FEE3C2"/>
<path fill-rule="evenodd" clip-rule="evenodd" d="M25.0574 339.245C26.4011 337.63 27.1199 331.349 27.573 329.193L33.7657 297.422C35.0261 290.417 36.3699 283.328 37.8074 276.328C39.2449 269.328 40.5053 262.146 41.9376 255.146C43.3751 248.146 44.724 241.141 46.073 234.141C47.4168 227.141 48.6772 219.958 50.2032 212.958C51.7293 205.958 52.8074 198.776 54.3334 191.776C55.8595 184.776 57.1147 177.682 58.4636 170.594C61.1563 156.594 63.8543 142.5 66.724 128.406C72.3855 100.224 77.6824 72.1302 83.1615 43.8594C84.599 36.7656 85.8543 29.7656 87.2032 22.6719C88.547 15.5833 90.0782 8.31251 90.974 1.22397C90.4376 0.864591 89.1772 1.04167 88.547 1.04167C88.1876 1.76042 87.922 2.56772 87.7397 3.37501C87.5626 4.27605 87.3803 5.08334 87.2032 5.97917C86.8438 7.77605 86.573 9.39063 86.2136 11.276C85.9428 12.8906 85.4949 14.776 85.224 16.4792C84.9584 18.1875 84.5053 20.1615 84.2397 21.8646L72.0261 85.2344C67.1772 109.557 62.5938 134.87 57.7449 159.104C57.3855 160.901 57.0261 162.516 56.7553 164.313C56.4011 166.286 56.0418 167.813 55.6824 169.698L51.6407 190.698C50.922 194.198 50.2918 197.792 49.6615 201.109C49.3022 202.906 48.9428 204.521 48.6772 206.318C48.4063 208.109 47.9584 209.818 47.599 211.703C46.9688 215.292 46.2501 218.615 45.6199 222.115L31.3438 296.161C30.2657 302.536 28.4688 310.615 27.2136 317.167C26.672 319.948 23.2605 336.193 23.2605 338.531C23.797 338.979 24.4272 339.156 25.0574 339.245Z" fill="#FEE3C2"/>
<path fill-rule="evenodd" clip-rule="evenodd" d="M153.75 145.552L166.411 146.719C170.005 147.167 173.417 147.255 177.099 147.703C181.859 148.333 187.245 148.604 192.005 149.052L198.292 149.682C202.063 150.219 207.271 150.307 211.135 150.849C211.854 150.937 212.75 151.026 213.292 151.115C215.536 151.297 220.115 151.833 221.911 151.833L223.26 142.411C223.526 140.703 223.167 141.604 219.396 141.062C218.677 140.974 217.599 140.885 217.063 140.797L194.792 138.818C191.557 138.37 187.693 138.281 184.911 137.922C181.859 137.474 178.443 137.385 175.12 137.026C170.99 136.484 164.526 136.219 160.396 135.677L155.276 135.229L153.75 145.552Z" fill="#DBA562"/>
<path fill-rule="evenodd" clip-rule="evenodd" d="M106.599 142.141C108.125 142.141 109.651 142.411 111.088 142.5C111.901 142.5 112.349 142.589 113.333 142.677C116.568 142.859 121.328 143.578 124.74 143.667C126.177 143.755 127.703 143.844 129.229 144.026L133.812 144.474L140.547 145.193C141.266 145.37 141.984 145.464 142.792 145.552C142.792 144.026 144.588 134.693 144.406 134.333C144.229 133.974 143.687 134.063 143.151 134.063L132.375 133.255C131.208 133.167 130.578 133.073 129.411 133.073L120.25 132.359C118.276 132.177 116.297 132 114.146 131.818C111.99 131.641 110.281 131.281 108.036 131.281C108.036 132.359 107.047 137.651 106.781 139.271C106.781 140.255 106.599 141.151 106.599 142.141Z" fill="#DBA562"/>
<path fill-rule="evenodd" clip-rule="evenodd" d="M108.484 129.844C110.911 129.844 112.885 130.203 115.224 130.203C115.224 128.948 115.849 124.729 116.12 123.115C118.365 109.651 120.161 95.1093 122.495 81.6458L123.573 74.552C121.599 73.927 119.531 73.5677 117.469 73.4791C117.375 74.4635 117.109 75.8125 116.927 76.8854L115.224 87.4791C114.411 92.1458 113.786 96.8125 112.974 101.479L108.484 129.844Z" fill="#A66C2F"/>
<path fill-rule="evenodd" clip-rule="evenodd" d="M177.458 241.323C177.458 241.771 180.333 241.948 181.047 242.042C189.312 243.208 198.651 244.286 206.734 245.63C207.365 245.807 207.99 245.901 208.708 245.901C208.708 245 208.891 244.104 209.068 243.297L210.146 235.396C208.531 234.589 204.849 234.589 202.604 234.323C199.906 233.964 197.302 233.604 194.698 233.333C192.094 233.063 189.672 232.703 186.974 232.344C185.542 232.167 184.552 232.078 183.115 231.807C181.766 231.536 180.422 231.448 179.073 231.359C179.073 232.703 177.458 239.885 177.458 241.323Z" fill="#DBA562"/>
<path fill-rule="evenodd" clip-rule="evenodd" d="M243.375 15.3125L235.115 73.4792C229.635 112.073 224.245 151.026 218.5 189.62L210.688 244.193C210.417 245.453 210.328 246.62 210.234 247.875C210.688 246.979 218.859 191.417 219.219 188.813C226.849 139.448 233.943 89.9896 241.667 40.625L245.172 18.6354C245.62 16.2135 246.156 13.6094 246.427 11.1875C245.443 11.9948 244.724 14.1458 243.375 15.3125Z" fill="#FEE3C2"/>
<path fill-rule="evenodd" clip-rule="evenodd" d="M140.01 236.297C140.906 236.297 141.896 236.474 142.792 236.656L162.547 239.615C162.547 238 163.266 236.562 163.266 234.948C162.818 234.771 162.37 234.589 162.01 234.323C158.51 231.536 162.729 228.844 148.359 226.87C147.281 226.693 146.026 226.51 145.037 226.422C143.87 226.151 142.615 226.062 141.443 226.062C141.443 228.036 140.01 233.964 140.01 236.297Z" fill="#DBA562"/>
<path fill-rule="evenodd" clip-rule="evenodd" d="M166.589 307.026C166.589 309.807 168.208 314.115 169.646 316.448C169.912 316.99 170.005 317.167 170.813 317.167C170.724 316.448 170.542 315.729 170.365 315.01C169.464 311.245 169.287 307.385 169.734 303.526C169.823 302.714 169.734 302.089 169.823 301.37C169.912 300.74 170.094 300.021 170.182 299.307C170.63 296.792 171.172 294.01 171.531 291.318C172.787 283.505 174.495 275.161 175.75 267.349L180.151 243.474C179.255 243.474 178.177 243.115 177.188 243.115L168.833 290.417C168.385 293.109 167.849 295.714 167.49 298.406C167.042 301.37 166.682 304.151 166.589 307.026Z" fill="#A66C2F"/>
<path fill-rule="evenodd" clip-rule="evenodd" d="M70.7656 139.536C73.1042 139.536 84.151 140.344 86.6615 140.615C87.474 140.797 88.1875 140.885 89 140.885C89.7187 137.474 90.3437 133.974 90.7031 130.474L81.724 129.755C80.1094 129.667 78.6719 129.484 77.2344 129.396C75.6146 129.307 74.1823 129.036 72.5625 129.036C72.474 129.844 72.2917 130.74 72.1146 131.547C71.9375 132.536 71.8437 133.167 71.6667 134.24C71.125 136.036 70.8594 137.745 70.7656 139.536Z" fill="#DBA562"/>
<path fill-rule="evenodd" clip-rule="evenodd" d="M234.302 152.823H239.693C244.99 153 246.786 154.615 248.135 151.208C250.917 144.203 246.068 142.411 240.229 142.141C238.797 142.052 237.266 141.781 235.74 141.781C235.74 143.13 234.302 150.755 234.302 152.823Z" fill="#DBA562"/>
<path fill-rule="evenodd" clip-rule="evenodd" d="M48.5833 133.073C48.5833 136.125 48.5833 137.922 52.7187 137.922C55.2291 137.922 57.7447 138.458 60.3489 138.458L61.2499 133.432C61.6978 131.729 61.9687 130.026 62.0572 128.229C60.7083 128.229 60.1718 128.047 58.7343 128.047C56.401 127.958 53.9739 128.047 51.6405 128.229C49.5728 128.5 48.5833 131.818 48.5833 133.073Z" fill="#DBA562"/>
<path fill-rule="evenodd" clip-rule="evenodd" d="M14.7292 378.563C14.7292 379.995 14.6406 381.073 15.4479 382.328C15.8073 382.87 16.3438 383.406 16.974 383.766C18.4115 384.755 20.2084 385.292 22.0052 385.292C24.1563 385.292 25.5938 380.802 26.0417 378.922C26.1354 378.469 26.224 377.932 26.3125 377.484C26.4948 377.036 26.5834 376.495 26.5834 375.958C25.3281 375.688 16.4323 373.177 15.5365 373.177C15.4479 375.057 14.7292 376.583 14.7292 378.563Z" fill="#DBA562"/>
<path fill-rule="evenodd" clip-rule="evenodd" d="M221.104 248.146C223.885 248.146 228.469 249.76 229.547 248.146C230.891 246.167 232.151 241.323 230.172 239.167C229.547 238.63 228.828 238.182 228.016 238L222.542 236.833C222.182 238.542 221.641 243.026 221.37 245.182C221.37 246.167 221.193 247.156 221.104 248.146Z" fill="#DBA562"/>
<path fill-rule="evenodd" clip-rule="evenodd" d="M128.964 234.771C128.964 233.422 129.771 229.385 130.042 227.5C130.219 226.604 130.307 225.792 130.401 224.896C127.974 224.719 127.526 224.177 124.203 224.177C122.943 224.177 121.687 225.792 121.057 226.781C120.073 228.307 120.521 229.385 120.969 231.271C121.687 234.141 122.224 233.693 123.932 234.052C125.547 234.5 127.255 234.682 128.964 234.771Z" fill="#DBA562"/>
<path fill-rule="evenodd" clip-rule="evenodd" d="M185.807 423.708C185.807 426.938 190.568 427.479 193.083 427.479C194.521 427.479 195.417 422.99 195.688 421.552C195.87 420.745 196.047 419.938 196.224 419.13C194.698 418.771 193.26 418.323 191.646 417.964C185.99 416.708 186.974 416.167 186.62 418.323C186.526 419.042 186.438 419.313 186.26 420.12C185.99 421.375 185.807 422.542 185.807 423.708Z" fill="#DBA562"/>
<path fill-rule="evenodd" clip-rule="evenodd" d="M179.344 229.922C180.063 230.104 180.87 230.193 181.589 230.104C181.589 229.203 182.667 223.641 182.938 222.203C183.385 219.51 183.922 216.818 184.37 214.214C185 210.448 186.078 204.25 186.974 200.484C187.427 198.687 188.323 197.432 184.823 197.432L179.344 229.922Z" fill="#A66C2F"/>
</svg>
