<svg width="197" height="100" viewBox="0 0 197 100" fill="none" xmlns="http://www.w3.org/2000/svg">
<mask id="mask0_412_430" style="mask-type:luminance" maskUnits="userSpaceOnUse" x="0" y="0" width="197" height="100">
<path d="M0.390625 0.375H196.391V99.375H0.390625V0.375Z" fill="white"/>
</mask>
<g mask="url(#mask0_412_430)">
<path d="M196.25 46.8177C196.198 46.7916 190.672 43.9687 186.047 33.6041C183.104 27.0364 180.427 15.1719 178.875 1.8906C178.859 1.77602 178.776 1.68748 178.646 1.69269C178.531 1.7031 178.443 1.80206 178.448 1.91665C178.448 2.19269 178.802 29.1198 162.12 34.3489C161.458 33.1823 156.979 24.8021 154.354 7.04685C154.338 6.93227 154.229 6.85415 154.115 6.86977C153.995 6.8906 153.911 6.99477 153.932 7.10935C153.958 7.33331 156.219 29.1719 134.844 36.4583C134.484 34.8281 132.391 24.8125 131.974 14.1458C131.984 13.2812 131.927 12.776 131.927 12.7604C131.922 12.6458 131.838 12.5573 131.708 12.5625C131.594 12.5729 131.505 12.6719 131.505 12.7864C131.51 13.25 131.531 13.7083 131.547 14.1614C131.531 16.1823 131.213 20.1614 129.245 24.276C126.698 29.5885 120.802 36.2135 107.172 37.8021C106.797 37.0625 106.437 36.2916 106.088 35.5052C102.661 27.6406 101.557 16.0833 100.974 1.16144V0.99477C100.974 0.880186 100.875 0.781229 100.76 0.770812C100.693 0.781229 100.63 0.807271 100.594 0.859354C100.583 0.869771 100.578 0.880187 100.568 0.895812C100.547 0.921853 100.542 0.947896 100.542 0.979145C100.531 0.984353 100.531 0.994771 100.531 1.00519C100.521 1.16144 99.5052 17.2812 95.552 33.3854C95.1927 34.8385 94.7239 36.2656 94.1406 37.6562C92.8281 37.6146 87.0312 37.2604 81.302 34.5729C72.6458 30.5104 68.2395 23.3281 68.2187 13.2291C68.2187 13.1146 68.1249 13.0156 68.0104 13.0156C67.8854 13.0156 67.7968 13.1146 67.7864 13.2291C67.7864 13.3698 67.6093 27.6302 65.2864 35.5937C63.151 35.0937 43.7812 29.8437 45.1562 6.05727C45.1666 5.94269 45.0781 5.84373 44.9583 5.8281C44.8437 5.81769 44.7499 5.89581 44.7291 6.0104C44.7031 6.21873 41.8906 26.5469 37.3749 33.3385C36.6041 33.1719 32.5781 32.1406 28.7656 28.1614C24.8749 24.0833 20.4218 15.9948 21.3176 0.604145C21.3176 0.489563 21.2291 0.380187 21.1145 0.374979C20.9999 0.364563 20.901 0.453104 20.8854 0.567687C20.8593 0.916646 17.651 34.7864 0.567646 44.5469C0.463479 44.6094 0.42702 44.7344 0.479104 44.8385L1.10931 46.026C1.14577 46.0833 1.19786 46.125 1.26035 46.1354L8.64577 47.526L8.36973 66.0156C8.28119 66.0312 8.20827 66.1094 8.20827 66.2083L8.17181 66.9531L7.4739 67.1771C7.38535 67.2031 7.32285 67.2916 7.32285 67.3854L7.48431 73.7604C7.48952 73.8698 7.57286 73.9583 7.67702 73.9687C7.7864 73.9739 7.88015 73.9114 7.90619 73.8073C7.9166 73.7812 8.64577 70.9531 10.4947 70.4375C10.9218 70.8281 12.9531 72.8125 14.0312 75.9271L13.7864 95.9844H7.39577C7.28119 95.9844 7.18223 96.0781 7.18223 96.1979V98.4844C7.18223 98.5989 7.28119 98.6979 7.39577 98.6979H88.5312V99.1666C88.5312 99.2812 88.6249 99.3802 88.7395 99.3802H111.552C111.672 99.3802 111.771 99.2812 111.771 99.1666V98.6666H188.927C189.042 98.6666 189.141 98.5729 189.141 98.4583V96.1666C189.141 96.0521 189.042 95.9583 188.927 95.9583H182.75L182.667 75.8541C183.713 72.7864 185.646 70.8385 186.073 70.4375C187.865 70.9531 188.562 73.7604 188.573 73.7916C188.588 73.8958 188.677 73.9687 188.802 73.9583C188.911 73.9427 188.99 73.8541 188.99 73.7448L189.151 67.3698C189.156 67.2812 189.094 67.1927 189.005 67.1666L188.271 66.9166V66.1979C188.271 66.1198 188.219 66.0416 188.146 66.0156L188.12 49.7083C191.437 49.2396 194.208 48.7656 195.13 48.4323C195.167 48.4114 195.193 48.3958 195.213 48.3698L196.312 47.1562C196.354 47.0989 196.375 47.0416 196.365 46.9687C196.349 46.9062 196.312 46.8437 196.25 46.8177ZM95.9687 33.4896C97.3385 27.8854 98.3697 22.2812 99.1145 17.3541C99.927 11.9687 100.417 7.38539 100.682 4.45831C100.807 7.22915 100.963 9.86977 101.151 12.3802C101.161 12.4323 101.161 12.4739 101.161 12.5312C101.896 22.1302 103.172 29.8802 105.698 35.6719C105.99 36.3541 106.302 37.0104 106.62 37.6562C106.62 37.6666 106.63 37.6771 106.641 37.6823C106.729 37.8802 106.823 38.0729 106.932 38.2604C111.594 47.3646 118.005 52.4583 119.208 53.3541L117.328 55.3906C107.74 49.6198 102.677 33.5416 102.625 33.3854C102.604 33.3281 102.578 33.2969 102.536 33.2708L100.609 32.0208C100.578 31.9896 100.542 31.9844 100.495 31.9844C100.453 31.9844 100.406 32 100.365 32.026L98.5468 33.4791C98.5104 33.5104 98.4947 33.5521 98.4739 33.5989C95.1354 45.5573 85.5781 54.1666 84.3072 55.2656L82.0468 53.2708C87.8906 48.7604 92.0416 43.6719 94.4166 38.0937C94.9479 36.8802 95.3801 35.6354 95.7291 34.3698C95.8176 34.0781 95.8958 33.7812 95.9687 33.4896ZM114.448 57.2083C114.838 57.3177 115.187 57.2552 115.349 57.2187C114.802 57.7031 114.312 58.125 113.76 58.5989C113.687 58.6614 113.677 58.7552 113.713 58.8385C111.838 58.8698 110.557 58.8854 110.042 58.8906V55.9375L110.062 54.4583C110.062 54.4427 110.047 54.4323 110.042 54.4166L112.521 51.9635C113.885 53.4114 115.38 54.6927 117.01 55.6875C116.63 56.0469 116.229 56.3802 115.844 56.7291C115.406 56.8437 115.073 56.9531 114.479 56.8333C114.115 56.7604 113.906 56.4323 113.797 56.6198C113.677 56.8281 113.953 57.0729 114.448 57.2083ZM121.177 59.0937L121.187 73.5833C120.208 73.5937 119.146 73.6094 118.073 73.6198C118.094 73.5937 118.099 73.5573 118.099 73.5208V66.6146C118.099 66.5 118.005 66.401 117.885 66.401H112.411C112.292 66.401 112.198 66.5 112.198 66.6146V73.5208C112.198 73.6041 112.234 73.6666 112.292 73.7083C111.276 73.7187 110.479 73.7344 110.042 73.7344V59.3177C111.068 59.3073 115.245 59.2552 121.177 59.0937ZM117.677 66.8281V73.3125H112.62V66.8281H117.677ZM82.3958 73.2396L82.4218 66.5729L87.2343 66.7031L87.1822 73.3385L82.3958 73.2396ZM87.4583 66.2812L82.2187 66.1354C82.1562 66.1458 82.1041 66.1562 82.0572 66.1979C82.0208 66.2344 81.9947 66.2864 81.9947 66.3489L81.9687 73.4427C81.9687 73.5677 82.0572 73.6562 82.1822 73.6666L86.276 73.7552C83.4843 73.7083 79.9062 73.6719 77.1718 73.6406L77.1822 58.8906C81.9166 59.125 86.4531 59.2396 90.5312 59.1719V73.8177C90.2395 73.8177 89.6718 73.8073 88.9166 73.7969C88.4739 73.7916 87.9635 73.7812 87.3958 73.7708C87.4479 73.7708 87.4999 73.7448 87.5468 73.7083C87.5781 73.6666 87.6093 73.6146 87.6093 73.5573L87.6614 66.5C87.6614 66.3854 87.5729 66.2864 87.4583 66.2812ZM72.927 65.1719L67.8645 65.0312C67.8124 65.0312 67.7499 65.0469 67.7083 65.0885C67.6718 65.125 67.6458 65.1771 67.6458 65.2396L67.5937 73.276C67.5937 73.3906 67.6822 73.4896 67.7968 73.4896L70.0624 73.5521C68.4791 73.5312 66.6874 73.5052 63.4947 73.4427C63.2656 73.4427 63.052 73.4323 62.8385 73.4271C62.7083 73.4271 62.5676 73.4166 62.4218 73.4062V57.8698C66.6874 58.2344 71.0156 58.5573 75.2239 58.7916V73.6041C74.3749 73.5937 73.6562 73.5885 73.0051 73.5781C73.0156 73.5781 73.026 73.5677 73.0364 73.5573C73.0676 73.526 73.0937 73.4635 73.0937 73.4114L73.1406 65.3958C73.1406 65.2708 73.0416 65.1823 72.927 65.1719ZM72.7031 65.5989L72.6718 73.1875L68.0156 73.0625L68.0676 65.4635L72.7031 65.5989ZM18.1874 49.3229L24.802 50.5677C24.4583 50.8958 23.8645 51.4427 23.3385 51.7708C23.2812 51.8073 23.2447 51.8802 23.2447 51.9479C23.2447 52.0208 23.276 52.0937 23.3333 52.125L25.5312 53.5989C25.5572 53.6146 25.5833 53.6354 25.6093 53.6354C25.6354 53.6406 25.8437 53.6666 26.2031 53.7187V65.8177H18.1458L18.1874 49.3229ZM32.3281 54.5521C35.9062 55.0208 40.6822 55.6198 46.1145 56.2344V72.9479C39.1354 72.7083 33.4895 72.4844 32.3281 72.4427V54.5521ZM48.0989 56.4531C51.9999 56.8854 56.1822 57.3073 60.4635 57.6927V73.3646C56.1926 73.2656 52.1666 73.1354 48.2656 73.0104L48.0624 73L48.0989 56.4531ZM109.807 54.0521H108.219C108.042 53.6198 107.844 53.1927 107.677 52.7552C107.599 52.5364 107.531 52.3125 107.463 52.0885C107.432 51.9739 107.307 51.9062 107.198 51.9427C107.083 51.9739 107.031 52.0937 107.062 52.2083C107.135 52.4427 107.193 52.6771 107.276 52.901C107.422 53.2916 107.594 53.6719 107.755 54.0521H104.203C104.161 53.5156 104.172 52.9844 104.193 52.4479C104.193 52.3333 104.109 52.2239 103.99 52.2239C103.875 52.2187 103.766 52.3177 103.766 52.4375C103.745 52.9739 103.734 53.5156 103.771 54.0521H101.021C100.995 53.6719 101 53.2864 101.01 52.901C101.016 52.7864 100.927 52.6927 100.812 52.6875C100.693 52.6875 100.599 52.7708 100.599 52.8906C100.588 53.2812 100.568 53.6614 100.594 54.0521H97.2656C97.3385 53.5104 97.3697 52.9687 97.401 52.4219C97.4114 52.3021 97.3176 52.2031 97.2031 52.1927C97.0885 52.1875 96.9843 52.276 96.9739 52.3958C96.9426 52.9531 96.9166 53.5 96.8437 54.0521H92.2239C92.3281 53.8594 92.427 53.6666 92.4999 53.4635C92.6874 52.9375 92.7656 52.3802 92.8749 51.8333C92.8958 51.7187 92.8281 51.6146 92.7135 51.5937C92.5989 51.5729 92.4791 51.6406 92.4583 51.7552C92.3593 52.2812 92.276 52.8229 92.0989 53.3281C92.0104 53.5781 91.901 53.8125 91.7656 54.0364C91.7604 54.0416 91.7656 54.0469 91.7604 54.0521H90.7447C90.7135 54.0521 90.6926 54.0729 90.6666 54.0833L88.6874 51.4791C92.1197 47.625 96.7291 41.3698 98.8749 33.7708L100.516 32.4635L102.234 33.5781C102.557 34.5573 105.958 44.7916 112.229 51.651L109.807 54.0521ZM1.43744 45.7344L0.958271 44.8229C14.4739 36.9114 19.3176 14.1458 20.7708 4.74477C20.8333 17.6354 24.8906 24.7291 28.4843 28.4791C32.7916 32.9739 37.2499 33.7552 37.4374 33.7812C37.5156 33.8021 37.6041 33.7656 37.6458 33.6927C41.2135 28.4896 43.677 15.3958 44.6666 9.28644C45.1562 31.8594 65.1874 36.0156 65.401 36.0625C65.5104 36.0781 65.6145 36.0156 65.6406 35.9114C67.2291 30.5989 67.8489 22.3802 68.0781 17.4427C69.5051 27.6198 76.0312 32.7812 82.2239 35.3958C87.4583 37.6041 92.4635 38.0052 93.9531 38.0729C91.5676 43.5885 87.4322 48.6146 81.5885 53.0833C81.5364 53.1302 81.5104 53.1823 81.4999 53.2552C81.4999 53.3177 81.526 53.3802 81.5729 53.4114L84.1666 55.7083C84.2499 55.7812 84.3697 55.7812 84.4531 55.7187C84.4947 55.6823 86.1562 54.2812 88.3697 51.8281L90.5312 54.6666V58.75C66.8281 59.1146 27.3385 53.4583 25.7239 53.2187L23.8385 51.9531C24.5885 51.4166 25.3593 50.6198 25.3958 50.5781C25.401 50.5729 25.401 50.5729 25.401 50.5677C25.9218 50.125 26.4426 49.6146 26.9947 49.0416C28.3801 47.5937 29.8437 45.7604 31.3489 43.6562C32.7499 41.6979 34.1145 39.6041 35.3854 37.5052C35.8333 36.7708 36.2395 36.0833 36.5885 35.4739C36.7135 35.2604 36.9947 34.7448 37.0156 34.7135L36.6406 34.5C36.6249 34.5312 36.3385 35.0573 36.2135 35.2708C35.8645 35.8802 35.4687 36.5625 35.026 37.2916C33.7604 39.3802 32.3958 41.4635 31.0051 43.4114C29.5051 45.5052 28.0572 47.3125 26.6874 48.7448C26.1666 49.2916 25.6614 49.776 25.1718 50.2031L18.0416 48.8594C18.0312 48.8541 18.0208 48.8385 18.0051 48.8385L17.6354 48.7812L9.06765 47.1719L8.65098 47.0937L1.43744 45.7344ZM30.3593 54.2916V69.9583H27.8593L27.8541 53.9531C28.5468 54.0469 29.3854 54.1614 30.3593 54.2916ZM14.8333 56.2969H11.526C11.401 56.2969 11.3124 56.3906 11.3124 56.5104V62.5104C11.3124 62.5833 11.3385 62.6354 11.3854 62.6719H9.93744L10.1666 47.8125L16.5156 49.0104V62.6719H14.9739C15.0156 62.6354 15.052 62.5833 15.052 62.5104V56.5104C15.052 56.3906 14.9583 56.2969 14.8333 56.2969ZM14.6197 56.7291V62.2969H11.7395V56.7291H14.6197ZM10.6979 70.0364C10.6458 69.9948 10.5781 69.9791 10.5156 69.9948C9.14056 70.2969 8.31765 71.6146 7.88015 72.5989L7.75515 67.5312L8.21869 67.3802C8.21869 67.3854 8.21869 67.3906 8.2291 67.3958C8.26035 67.4323 8.32286 67.4583 8.38015 67.4583L16.5156 67.5208V71.0416C16.5156 71.1562 16.6145 71.2552 16.7343 71.2552H26.2031V76.0156C26.2031 76.0677 26.2291 76.1198 26.2656 76.1666C26.3124 76.2031 26.3645 76.2291 26.4166 76.2291H26.427L27.2604 76.2187C27.276 76.2187 27.302 76.2291 27.3281 76.2291H30.3593V76.5573C30.3541 76.5469 30.3437 76.5573 30.3333 76.5573C28.552 77.1406 27.4895 78.026 26.8593 78.8437C26.6822 79.0729 26.5312 79.2969 26.427 79.5104C26.2135 79.8802 26.0885 80.2083 26.026 80.4479L25.8749 80.3073L25.4426 79.8958L24.2812 78.8177C24.2187 74.4739 19.5468 72.5052 19.4999 72.4844C19.4479 72.4687 19.3958 72.4687 19.3541 72.4844C17.5676 73.0729 16.2551 74.6302 15.4531 75.875C15.2812 76.1302 15.1406 76.3802 15.026 76.5885C14.9374 76.7396 14.8645 76.875 14.802 77C14.7083 76.5885 14.5937 76.2083 14.4687 75.8385C14.3801 75.5885 14.2916 75.3489 14.1926 75.1198C12.9166 71.9531 10.8072 70.125 10.6979 70.0364ZM89.8489 94.0052V95.875H88.7395C88.6614 95.875 88.5989 95.9219 88.5624 95.9844H77.3958L77.4374 87.6927C77.7864 87.3385 78.0624 86.8073 77.927 86.0781C77.8385 85.6094 77.927 85.5052 78.1406 85.2656C78.4062 84.9427 78.8229 84.4635 79.052 82.9583C79.3645 80.9739 84.0416 80.0937 84.5051 80.0156C84.8229 80.0781 87.1197 80.5469 88.3854 81.3437C89.2656 81.8958 90.0729 82.7916 90.5312 83.3594V93.7916H90.0624C89.9479 93.7916 89.8489 93.8906 89.8489 94.0052ZM90.5312 82.6927C90.0364 82.1354 89.3645 81.4427 88.6197 80.9791C87.1926 80.0833 84.6562 79.6041 84.5468 79.5885C84.5208 79.5781 84.4947 79.5781 84.4687 79.5885C84.2447 79.625 78.9999 80.5104 78.6249 82.8958C78.4166 84.2812 78.0676 84.6875 77.8124 84.9896C77.5468 85.2916 77.3958 85.5104 77.5104 86.1562C77.5624 86.4791 77.526 86.7344 77.4374 86.9479V86.9583C77.3333 87.1979 77.1718 87.3802 77.0156 87.5052C76.8906 87.6146 76.7656 87.6823 76.6926 87.7187C76.6354 87.6927 76.552 87.6406 76.4583 87.5677C76.3124 87.4635 76.1458 87.3125 76.0312 87.0885C75.9166 86.875 75.8333 86.6041 75.8593 86.2656C75.9166 85.5625 75.7656 85.3594 75.5051 85.0833C75.2656 84.8177 74.9322 84.4479 74.6406 82.9479C74.1093 80.1562 69.6041 79.3073 68.8072 79.1719L90.5312 79.2604V82.6927ZM62.3072 87.5052C62.4426 87.25 62.5104 86.9219 62.4687 86.5208C62.4218 86.0885 62.5676 85.9739 62.8333 85.75C63.2031 85.4427 63.7187 85.0156 63.6666 83.5052C63.5781 81.026 68.1874 79.7239 68.6718 79.5885C69.1614 79.6666 73.7343 80.4583 74.2239 83.026C74.5312 84.651 74.9322 85.0833 75.1979 85.3802C75.3906 85.5885 75.4791 85.6875 75.4374 86.2396C75.3854 86.9323 75.677 87.4375 76.0208 87.7552L75.9843 95.9844H62.2187L62.3072 87.5052ZM63.2291 83.5156C63.2812 84.8177 62.8958 85.1406 62.5572 85.4219C62.4791 85.4844 62.3958 85.5573 62.3281 85.6354C62.1301 85.8281 61.9895 86.0885 62.052 86.5677C62.0885 86.9219 62.0051 87.1875 61.8854 87.3802C61.7604 87.6041 61.5729 87.7291 61.4739 87.7812C61.4322 87.7656 61.3801 87.7291 61.3176 87.6719C61.1406 87.5208 60.927 87.2135 60.9062 86.5833C60.9062 86.5312 60.9062 86.4844 60.901 86.4427C60.8437 85.8229 60.5729 85.5625 60.2968 85.3229C59.9583 85.0208 59.6145 84.7135 59.5624 83.5416C59.4166 80.6146 54.151 79.6406 53.9322 79.5989H53.8489C53.6197 79.651 48.2916 80.7864 48.2395 83.7396C48.2239 84.8646 47.8593 85.1354 47.5312 85.375C47.4531 85.4375 47.3697 85.4948 47.302 85.5729C47.1301 85.7396 47.0104 85.9739 47.0781 86.3958C47.177 86.9635 47.1249 87.401 46.9114 87.6823C46.8906 87.6979 46.8854 87.7187 46.8593 87.7344C46.7343 87.9062 46.5833 87.9687 46.4843 87.9948C46.4322 87.9583 46.3697 87.8958 46.2968 87.8177C46.0937 87.5833 45.8645 87.2031 45.9531 86.7344C46.026 86.3802 45.9791 86.0781 45.8801 85.8229V85.8125C45.7656 85.5208 45.5989 85.2812 45.4322 85.0469C45.1666 84.6771 44.9062 84.3229 44.9166 83.8073C44.9531 80.5729 39.1458 79.8021 38.8593 79.776C38.6406 79.7812 33.5624 80.2239 33.1197 83.401C32.9999 84.2135 32.5833 84.8021 32.2239 85.3229C31.9218 85.7604 31.6301 86.1666 31.5676 86.6198C31.5468 86.7239 31.5312 86.8229 31.5051 86.9114C31.4166 87.3437 31.2447 87.6719 31.0676 87.9219C30.8854 88.1875 30.6718 88.3541 30.5104 88.4635L30.5937 79.0208L68.5729 79.1719C68.0624 79.3021 63.1301 80.6614 63.2291 83.5156ZM47.2812 87.9062C47.5468 87.526 47.6197 86.9844 47.5051 86.3177C47.4426 85.9791 47.5468 85.901 47.7864 85.7239C48.151 85.4479 48.6406 85.0833 48.6666 83.7448C48.7187 81.2552 53.4062 80.1354 53.8958 80.0312C54.3854 80.1198 59.0104 81.0937 59.1354 83.5625C59.1979 84.9062 59.651 85.3177 60.0156 85.6458C60.2812 85.8854 60.4635 86.0521 60.4843 86.5937C60.4999 87.2031 60.677 87.5937 60.8801 87.8333L60.802 95.9844H47.2395L47.2812 87.9062ZM31.4947 88.0729C31.7083 87.7344 31.9062 87.2864 31.9947 86.6823C32.0468 86.3281 32.2864 85.9791 32.5676 85.5729C32.9687 85.0156 33.4114 84.375 33.5416 83.4635C33.9426 80.625 38.8437 80.1979 38.8437 80.1979C38.9062 80.1979 44.5156 80.9531 44.4843 83.8021C44.4843 84.4583 44.802 84.9062 45.0833 85.2969C45.3854 85.7239 45.6458 86.0885 45.5364 86.6562C45.4218 87.2135 45.6458 87.6666 45.8645 87.9687L45.8229 95.9844H31.4166L31.4947 88.0729ZM26.8489 79.6041C27.3385 78.7812 28.2968 77.7448 30.1822 77.0625V77.2552L30.0781 88.8021L30.0051 95.9844H26.7551L26.8489 79.6041ZM15.4426 76.7239C16.1354 75.5156 17.4999 73.5781 19.4062 72.9114C19.9895 73.1771 23.8541 75.0677 23.8541 78.9166C23.8541 78.9739 23.8801 79.0312 23.927 79.0729L25.4426 80.4948L25.3541 95.9844H15.1926L15.4426 76.7239ZM7.6041 98.2708V96.4062H13.9999C14.1145 96.4062 14.2031 96.3177 14.2083 96.1979L14.4426 77.3646C14.4739 77.4791 14.5051 77.5833 14.5208 77.6979C14.5364 77.7864 14.6093 77.8594 14.7083 77.8698C14.7968 77.875 14.8958 77.8229 14.927 77.7448C14.927 77.7344 14.9583 77.6719 15.0104 77.5573L14.7708 96.1927C14.7708 96.25 14.7864 96.3021 14.8333 96.3437C14.8645 96.3906 14.927 96.4062 14.9843 96.4062H25.5676C25.6822 96.4062 25.7812 96.3177 25.7812 96.1927L25.8697 80.8906L26.0104 81.026C26.0624 81.0781 26.151 81.0937 26.2291 81.0677C26.302 81.0416 26.3541 80.9687 26.3645 80.8906C26.3645 80.875 26.3801 80.7916 26.4166 80.651L26.3281 96.1979C26.3281 96.25 26.3489 96.3125 26.3906 96.3437C26.427 96.3906 26.4895 96.4062 26.5416 96.4062H30.2187C30.3333 96.4062 30.4322 96.3177 30.4322 96.1979L30.5051 88.9583C30.6354 88.8906 30.8489 88.776 31.0729 88.5781L30.9895 96.1979C30.9895 96.25 31.0104 96.3125 31.052 96.3437C31.0989 96.3906 31.151 96.4062 31.2031 96.4062H46.0364C46.1562 96.4062 46.2447 96.3125 46.2551 96.1979L46.302 88.3906C46.3072 88.3906 46.3176 88.401 46.3176 88.401C46.3645 88.4375 46.4166 88.4531 46.4687 88.4479C46.4791 88.4375 46.6458 88.4166 46.8593 88.3021L46.8124 96.1979C46.8124 96.25 46.8333 96.3125 46.8749 96.3437C46.9114 96.3906 46.9635 96.4062 47.026 96.4062H61.0156C61.1301 96.4062 61.2291 96.3177 61.2291 96.1979L61.3072 88.1823C61.3801 88.2083 61.4218 88.2239 61.4322 88.2239C61.4739 88.2344 61.5208 88.2344 61.5624 88.2135C61.651 88.1771 61.7708 88.1198 61.8749 88.0312L61.7968 96.1927C61.7968 96.25 61.8124 96.3125 61.8593 96.3437C61.8906 96.3906 61.9479 96.4062 62.0104 96.4062H76.1979C76.3176 96.4062 76.4114 96.3125 76.4114 96.1927L76.4479 88.0625C76.5104 88.0989 76.5624 88.125 76.6145 88.1458C76.6614 88.1719 76.7135 88.1719 76.7656 88.151C76.8489 88.125 76.927 88.0833 77.0156 88.0208L76.9687 96.1927C76.9687 96.25 76.9999 96.3125 77.0312 96.3437C77.0781 96.3906 77.1301 96.4062 77.1822 96.4062H88.5312V98.2708H7.6041ZM111.338 98.9531H88.9531V96.3021H90.0624C90.1874 96.3021 90.2864 96.2031 90.2864 96.0885V94.2187H90.7447C90.8697 94.2187 90.9583 94.1198 90.9583 94.0052V79.0469C90.9583 78.9323 90.8697 78.8333 90.7447 78.8333L30.6562 78.5937V77.4791C30.7343 77.4531 30.7864 77.3698 30.7864 77.2812V76.0156C30.7864 75.901 30.6979 75.8021 30.5729 75.8021H27.401C27.3854 75.7916 27.3749 75.7864 27.3281 75.7864L26.6406 75.7916V71.0416C26.6406 70.9271 26.5416 70.8281 26.4166 70.8281H16.9479V67.3073C16.9479 67.1927 16.8541 67.0937 16.7343 67.0937L8.7864 67.0312L8.79681 66.4114C8.88535 66.3958 8.94265 66.3073 8.94265 66.2187L9.17702 47.6406L9.74473 47.75L9.50515 62.8854C9.50515 62.9427 9.52077 63 9.56765 63.0312C9.5989 63.0781 9.6614 63.1041 9.71869 63.1041H16.7343C16.8541 63.1041 16.9479 63.0052 16.9479 62.8906V49.1146L17.5989 49.2135L17.7656 49.2448L17.7187 66.0312C17.7187 66.0833 17.7499 66.1354 17.7812 66.1823C17.8281 66.2187 17.8801 66.2448 17.9322 66.2448H26.4166C26.5416 66.2448 26.6406 66.1458 26.6406 66.0312V53.8125L27.4166 53.9114L27.4374 70.1719C27.4374 70.2864 27.5364 70.3854 27.651 70.3854H30.5729C30.6979 70.3854 30.7864 70.2864 30.7864 70.1719V54.3646L31.8958 54.5052V72.6458C31.8958 72.7604 31.9947 72.8489 32.1093 72.8594C32.4739 72.875 38.6145 73.1146 46.3281 73.3802C46.3541 73.3802 46.4426 73.3646 46.4791 73.3177C46.5208 73.2812 46.5468 73.2239 46.5468 73.1666V56.3333L47.6666 56.4375L47.6406 73.2031C47.6406 73.3177 47.7343 73.4166 47.8541 73.4166L48.2604 73.4323C52.2239 73.5677 56.3176 73.6979 60.677 73.7969C60.7395 73.7969 60.7916 73.7708 60.8281 73.7344C60.8749 73.6927 60.901 73.6406 60.901 73.5781V57.8125L61.9895 57.875V73.6198C61.9895 73.7344 62.0885 73.8333 62.2031 73.8333C62.427 73.8437 62.6197 73.8489 62.8229 73.8489C63.0468 73.8594 63.2604 73.8698 63.4895 73.8802C67.8854 73.9479 69.6145 73.9687 71.8281 73.9948C72.8333 74 73.9322 74.0208 75.427 74.0364C75.4739 74.026 75.5468 74.0104 75.5885 73.9739C75.6249 73.9323 75.651 73.8802 75.651 73.8229V58.8385L76.7604 58.8958L76.7499 73.8541C76.7499 73.9687 76.8385 74.0625 76.9531 74.0625C80.6874 74.1094 86.1041 74.1823 88.9114 74.2239C89.9947 74.2396 90.6822 74.25 90.7447 74.25C90.7812 74.2344 90.8593 74.2239 90.8958 74.1875C90.9426 74.1458 90.9583 74.0937 90.9583 74.0364V59.125C91.0208 59.0885 91.0729 59.0312 91.0676 58.9583L91.0364 54.6927C91.0364 54.6666 91.0364 54.6302 91.0208 54.6041L109.62 54.6666V55.401L109.573 59.1041C109.573 59.1458 109.599 59.1771 109.62 59.2135V73.9583C109.62 74.0104 109.635 74.0625 109.682 74.1094C109.719 74.1458 109.776 74.1719 109.833 74.1719C110.255 74.1614 111.594 74.1458 113.323 74.1198C115.719 74.0833 118.875 74.0364 121.406 74.0104C121.526 74.0104 121.62 73.9114 121.62 73.7969L121.604 59.0833C121.63 59.0833 121.651 59.0781 121.677 59.0781L122.766 59.0729L122.713 73.7812C122.713 73.8437 122.74 73.8958 122.776 73.9323C122.818 73.9739 122.87 73.9948 122.922 73.9948H122.932C124.38 73.9739 125.453 73.9687 126.417 73.9583C128.635 73.9323 130.318 73.9166 134.687 73.8333C134.953 73.8333 135.208 73.8229 135.458 73.8177C135.687 73.8073 135.922 73.7969 136.161 73.7969C136.276 73.7916 136.37 73.7031 136.37 73.5781L136.354 58.5729L137.49 58.4948L137.463 73.5416C137.463 73.5937 137.49 73.6562 137.531 73.6927C137.568 73.7344 137.646 73.7552 137.682 73.7552C141.745 73.6666 145.823 73.5521 150.51 73.3906C150.625 73.3906 150.724 73.2916 150.724 73.1771V57.6614L151.812 57.5989V73.125C151.812 73.1875 151.838 73.2396 151.885 73.2864C151.927 73.3177 151.974 73.3385 152.036 73.3385C159.224 73.0885 164.359 72.8958 165.219 72.8594C165.333 72.8489 165.422 72.7604 165.422 72.6458L165.427 56.2969L166.521 56.1458V70.0573C166.521 70.1719 166.609 70.2708 166.734 70.2708H169.615C169.74 70.2708 169.828 70.1719 169.828 70.0573L169.844 55.7083L170.635 55.5937V65.9896C170.635 66.1094 170.729 66.1979 170.844 66.1979H179.406C179.531 66.1979 179.62 66.1094 179.62 65.9896L179.641 50.8177L180.401 50.7344V63.3177C180.401 63.4323 180.5 63.5312 180.615 63.5312H186.906C187.021 63.5312 187.12 63.4323 187.12 63.3177L187.156 49.8646L187.672 49.7969L187.625 66.1979C187.625 66.2604 187.651 66.3125 187.687 66.3489C187.698 66.3594 187.713 66.3698 187.724 66.375V67.0312C187.724 67.0521 187.724 67.0677 187.734 67.0885H180.615C180.5 67.0885 180.401 67.1823 180.401 67.2969V70.7812H170.844C170.729 70.7812 170.635 70.8802 170.635 71.0052V75.7291H166.734C166.609 75.7291 166.521 75.8281 166.521 75.9427V78.5677L109.833 78.7812C109.719 78.7812 109.62 78.8802 109.62 78.9948V94.0052C109.62 94.1198 109.719 94.2187 109.833 94.2187H110.177V96.0885C110.177 96.2031 110.276 96.3021 110.391 96.3021H111.338V98.9531ZM135.927 58.5416L135.937 73.375C135.766 73.375 135.609 73.3802 135.448 73.3906C135.193 73.3906 134.943 73.401 134.677 73.4062C133.818 73.4271 133.062 73.4323 132.38 73.4427C132.453 73.4062 132.495 73.3385 132.495 73.2552V65.8281C132.495 65.7135 132.401 65.6146 132.276 65.6146H127.047C126.922 65.6146 126.823 65.7135 126.823 65.8281V73.2552C126.823 73.3802 126.922 73.4687 127.047 73.4687H130.609C128.917 73.4948 127.766 73.5156 126.417 73.5208C125.495 73.5416 124.484 73.5521 123.135 73.5677L123.187 59.0364C126.963 58.9219 131.307 58.7604 135.927 58.5416ZM165 56.3177L164.995 72.4427C163.719 72.4948 158.875 72.6719 152.245 72.901V57.5416C156.63 57.2031 160.953 56.7969 165 56.3177ZM174.37 53.2812L172.786 51.5885C173.766 51.4791 176.245 51.2031 179.213 50.8437L179.193 65.776H177.198C177.281 65.7448 177.344 65.6666 177.344 65.5781V60.2396C177.344 60.125 177.245 60.026 177.12 60.026H173.432C173.318 60.026 173.219 60.125 173.219 60.2396V65.5781C173.219 65.6666 173.281 65.7448 173.359 65.776H171.057V55.5052C171.885 55.3802 172.693 55.25 173.474 55.1146C173.536 55.1094 173.594 55.0625 173.625 55.0104L174.396 53.5208C174.443 53.4427 174.427 53.3437 174.37 53.2812ZM185.62 57.1354H182.057C181.932 57.1354 181.844 57.2344 181.844 57.3489V63C181.844 63.0312 181.854 63.0677 181.87 63.1041H180.823V50.651C182.75 50.4114 184.792 50.1562 186.729 49.8906L186.693 63.1041H185.807C185.823 63.0677 185.833 63.0312 185.833 63V57.3489C185.833 57.2344 185.745 57.1354 185.62 57.1354ZM185.406 57.5729V62.776H182.271V57.5729H185.406ZM176.906 60.4531V65.3594H173.651V60.4531H176.906ZM166.943 56.0781C167.781 55.9739 168.609 55.8594 169.417 55.7448L169.401 69.8333H166.943V56.0781ZM147.167 65.2708C147.167 65.2083 147.141 65.151 147.094 65.1198C147.062 65.0729 147.005 65.0469 146.943 65.0573L141.786 65.1875C141.672 65.1875 141.583 65.2864 141.583 65.401L141.562 73.0469C141.562 73.1041 141.588 73.1614 141.625 73.1927C141.646 73.2135 141.651 73.2239 141.672 73.2291C140.396 73.2656 139.146 73.2916 137.896 73.3177L137.922 58.4479C141.943 58.2448 146.13 57.9948 150.297 57.6875V72.9739C149.203 73.0104 148.161 73.0469 147.13 73.0729C147.177 73.0364 147.203 72.9739 147.203 72.9114L147.167 65.2708ZM146.776 72.7083L141.99 72.8229L142.005 65.6041L146.74 65.4896L146.776 72.7083ZM132.062 66.0416V73.0469H127.255V66.0416H132.062ZM167.141 77.2552V77.0781C169.141 77.8333 170.021 79.0052 170.401 79.8437V95.9583H167.156V77.3385C167.156 77.3073 167.146 77.2812 167.141 77.2552ZM151.917 87.7969C152.104 87.5052 152.24 87.1094 152.151 86.6354C152.031 86.0781 152.292 85.7083 152.583 85.2916C152.859 84.8906 153.167 84.4375 153.167 83.7916C153.13 80.9375 158.568 80.1979 158.573 80.1979C158.62 80.1979 163.365 80.6094 163.75 83.4635C163.875 84.375 164.302 85.0052 164.682 85.5729C164.958 85.9739 165.198 86.3281 165.25 86.6823C165.338 87.2864 165.516 87.7291 165.74 88.0625V95.9531H151.917V87.7969ZM165.74 86.9635C165.713 86.8594 165.682 86.7448 165.667 86.6198C165.604 86.1666 165.328 85.7604 165.036 85.3333C164.682 84.8125 164.286 84.2187 164.177 83.401C163.958 81.7969 162.583 80.8854 161.255 80.375C159.917 79.8802 158.63 79.776 158.568 79.776C158.328 79.8021 152.698 80.5625 152.734 83.7916C152.745 84.3073 152.495 84.6614 152.229 85.0416C152.125 85.2031 152.005 85.3594 151.917 85.5312C151.74 85.8541 151.625 86.2291 151.724 86.7187C151.802 87.1146 151.651 87.4427 151.495 87.6771C151.396 87.8177 151.292 87.9219 151.219 87.9844C151.146 87.9583 151.052 87.9114 150.943 87.8229C150.901 87.7916 150.854 87.7344 150.812 87.6823C150.599 87.401 150.536 86.9583 150.635 86.3802C150.698 86.0521 150.635 85.8385 150.521 85.6771C150.437 85.5469 150.323 85.4583 150.208 85.3698C149.896 85.1302 149.552 84.8541 149.536 83.7187C149.474 80.776 144.302 79.651 144.083 79.5989H144.005C143.781 79.6406 138.693 80.6146 138.562 83.5416C138.505 84.7135 138.172 85.0208 137.849 85.3229C137.698 85.4687 137.552 85.5989 137.443 85.8021C137.328 85.9896 137.255 86.2396 137.25 86.5833C137.24 87.0104 137.135 87.2916 137.016 87.4791C136.901 87.6562 136.771 87.7344 136.698 87.7708C136.635 87.7344 136.547 87.6823 136.458 87.5833C136.281 87.401 136.094 87.0781 136.151 86.5677C136.193 86.2291 136.13 86 136.036 85.8281C135.937 85.6614 135.797 85.5364 135.661 85.4219C135.333 85.1406 134.963 84.8177 135.005 83.5156C135.104 80.6614 130.344 79.2969 129.792 79.1458C129.786 79.1354 129.766 79.1354 129.75 79.1354C129.74 79.1354 129.729 79.1354 129.713 79.1458C129.5 79.1719 124.5 79.9323 123.943 82.9375C123.667 84.4375 123.338 84.8125 123.099 85.0781C122.859 85.3489 122.713 85.5573 122.766 86.2552C122.781 86.4791 122.755 86.6614 122.703 86.8333C122.615 87.1406 122.437 87.3541 122.266 87.5052C122.151 87.6041 122.047 87.6771 121.974 87.7083C121.911 87.6719 121.818 87.6198 121.708 87.5312C121.557 87.4166 121.391 87.2396 121.281 87C121.177 86.7812 121.125 86.5052 121.187 86.1562C121.302 85.5104 121.151 85.2969 120.896 84.9896C120.646 84.6875 120.307 84.2812 120.104 82.8958C119.76 80.5833 114.974 79.6666 114.422 79.5729H114.344C114.245 79.5885 111.807 80.0781 110.422 80.9635C110.281 81.0521 110.156 81.151 110.042 81.2396V79.2083L129.75 79.1354L166.713 78.9948L166.703 88.4375C166.547 88.3385 166.349 88.1823 166.161 87.9219C165.984 87.6927 165.833 87.3802 165.74 86.9635ZM137.443 87.6041C137.568 87.3646 137.667 87.0469 137.672 86.5937C137.693 86.0521 137.875 85.875 138.135 85.6354C138.49 85.3177 138.922 84.9062 138.984 83.5625C139.099 81.1041 143.552 80.1302 144.036 80.0312C144.516 80.1354 149.057 81.2448 149.099 83.7291C149.125 85.0677 149.594 85.4323 149.943 85.7083C150.172 85.8854 150.271 85.9635 150.213 86.3073C150.099 87.0104 150.182 87.5521 150.474 87.9427C150.49 87.9583 150.5 87.9739 150.516 87.9948V95.9583H137.432L137.443 87.6041ZM122.693 87.6771C122.995 87.3489 123.234 86.8698 123.187 86.2187C123.151 85.6719 123.234 85.5729 123.427 85.3594C123.677 85.0677 124.068 84.6354 124.37 83.0208C124.838 80.4479 129.245 79.651 129.729 79.5677C130.234 79.7135 134.661 81.026 134.578 83.5052C134.526 85.0156 135.021 85.4427 135.385 85.75C135.635 85.9635 135.776 86.0885 135.734 86.5208C135.672 87.0625 135.823 87.4687 136.031 87.7448V95.9583H122.651L122.693 87.6771ZM111.719 95.9583C111.682 95.901 111.62 95.875 111.552 95.875H110.599V94.0052C110.599 93.8906 110.51 93.7916 110.391 93.7916H110.042V81.8229C110.213 81.6458 110.417 81.4844 110.656 81.3229C111.88 80.5364 114.078 80.0677 114.385 79.9948C116.135 80.3125 119.437 81.3229 119.677 82.9583C119.911 84.4531 120.302 84.9427 120.568 85.2604C120.771 85.5 120.849 85.5989 120.76 86.0781C120.635 86.8333 120.922 87.3802 121.276 87.7291L121.229 95.9531H111.719V95.9583ZM182.323 96.1666C182.323 96.2864 182.422 96.3802 182.536 96.3802H188.713V98.2448H111.771V96.3802H121.443C121.557 96.3802 121.656 96.2916 121.656 96.1666L121.698 88.0469C121.771 88.0885 121.833 88.1198 121.896 88.1458C121.948 88.1719 122.01 88.1719 122.062 88.1458C122.125 88.1198 122.187 88.0885 122.26 88.0469L122.213 96.1666C122.213 96.2239 122.24 96.2864 122.276 96.3177C122.323 96.3646 122.375 96.3802 122.427 96.3802H136.245C136.37 96.3802 136.458 96.2864 136.458 96.1666V88.125C136.51 88.151 136.568 88.1823 136.609 88.1979C136.656 88.2135 136.698 88.2239 136.745 88.2135C136.75 88.2135 136.87 88.1823 137.016 88.0833L137.01 96.1666C137.01 96.2239 137.036 96.2864 137.073 96.3177C137.115 96.3646 137.167 96.3802 137.224 96.3802H150.729C150.854 96.3802 150.943 96.2864 150.943 96.1666V88.3333C151.104 88.4114 151.229 88.4271 151.234 88.4271C151.292 88.4375 151.349 88.4219 151.396 88.3958C151.406 88.3854 151.437 88.3594 151.495 88.3073V96.1719C151.495 96.2864 151.588 96.3802 151.703 96.3802H165.953C166.068 96.3802 166.161 96.2864 166.161 96.1719V88.5625C166.385 88.7656 166.599 88.8802 166.729 88.9323V96.1719C166.729 96.2864 166.828 96.3802 166.943 96.3802H170.615C170.74 96.3802 170.833 96.2864 170.833 96.1719V81.0677C170.917 81.0937 171.005 81.0781 171.057 81.0156L171.396 80.6875V96.1666C171.396 96.2864 171.49 96.3802 171.604 96.3802H181.542C181.604 96.3802 181.656 96.3646 181.703 96.3177C181.74 96.2864 181.766 96.2239 181.766 96.1666L181.693 77.5469C181.745 77.6562 181.776 77.7187 181.776 77.7239C181.807 77.8125 181.906 77.8698 181.995 77.8594C182.094 77.8489 182.172 77.7812 182.182 77.6823C182.198 77.5781 182.224 77.4583 182.255 77.3541L182.323 96.1666ZM181.328 95.9583H171.818V80.2708L173.068 79.0573C173.104 79.0104 173.13 78.9583 173.13 78.8958C173.13 75.0677 176.854 73.1875 177.427 72.9114C179.266 73.5833 180.583 75.5 181.26 76.6979L181.328 95.9583ZM188.713 67.5208L188.588 72.5573C188.172 71.5885 187.375 70.2969 186.057 69.9948C185.995 69.9791 185.922 69.9948 185.87 70.0364C185.76 70.125 183.651 72.0052 182.422 75.2604C182.359 75.4271 182.297 75.5989 182.245 75.776C182.109 76.1562 181.995 76.5573 181.896 76.9739C181.838 76.8594 181.776 76.7239 181.687 76.5833C181.568 76.3594 181.427 76.1041 181.25 75.8385C180.469 74.6041 179.203 73.0729 177.484 72.4844C177.437 72.4687 177.385 72.4687 177.333 72.4844C177.286 72.5052 172.766 74.4531 172.703 78.8073L171.818 79.6771L171.396 80.1041L171.057 80.4323C171.01 80.2552 170.948 80.0312 170.833 79.776C170.74 79.5364 170.594 79.2604 170.401 78.9844C169.844 78.1354 168.823 77.1875 166.995 76.5729C166.979 76.5625 166.963 76.5625 166.943 76.5625V76.1562H170.844C170.958 76.1562 171.057 76.0677 171.057 75.9427V71.2187H180.609C180.729 71.2187 180.823 71.1198 180.823 71.0052V67.5104H188.057C188.146 67.5104 188.229 67.4479 188.255 67.3698L188.713 67.5208ZM194.937 48.0416C193.995 48.3698 191.323 48.8125 188.109 49.2656C187.969 49.2812 187.828 49.2969 187.687 49.3177C181.411 50.1979 173.401 51.0885 172.422 51.1927C171.141 49.7708 170.052 48.1771 168.974 46.5937C167.542 44.5 166.213 42.3698 164.979 40.151C164.12 38.6146 163.297 37.0573 162.641 35.4219C162.594 35.3125 162.469 35.2552 162.359 35.3021C162.25 35.3437 162.193 35.4739 162.24 35.5833C162.901 37.2344 163.734 38.8125 164.604 40.3646C165.932 42.7448 167.375 45.0208 168.922 47.2656C169.932 48.7344 170.963 50.2083 172.167 51.5364C172.172 51.5469 172.172 51.5573 172.182 51.5677L173.953 53.4583L173.297 54.7187C166.797 55.8229 158.781 56.6354 150.656 57.2344L150.49 57.2448C150.49 57.2448 150.49 57.2448 150.484 57.2448C140.052 58.0156 129.458 58.4271 121.698 58.651L121.391 58.6562C121.385 58.6562 121.38 58.6614 121.375 58.6614C118.505 58.7396 116.036 58.7969 114.125 58.8281C114.76 58.2812 115.375 57.7135 116.005 57.1562C118.307 57.25 120.62 57.3021 122.927 57.2864C129.344 57.25 135.745 56.875 142.156 56.5521C148.115 56.2552 154.088 56.0937 160.031 55.5104C164.177 55.1041 168.281 54.4323 172.354 53.5729C172.469 53.5469 172.536 53.4323 172.516 53.3177C172.49 53.2031 172.375 53.1354 172.26 53.1562C168.203 54.0156 164.12 54.6771 159.995 55.0833C154.057 55.6666 148.083 55.8281 142.125 56.125C135.531 56.4531 128.943 56.8541 122.338 56.875C120.385 56.8802 118.427 56.8125 116.474 56.7396C116.781 56.4583 117.109 56.1927 117.406 55.8958C117.422 55.8854 117.422 55.8594 117.432 55.8437C117.463 55.8333 117.5 55.8333 117.526 55.8073L119.687 53.4687C119.729 53.4219 119.75 53.3594 119.74 53.2969C119.74 53.2344 119.703 53.1823 119.651 53.1458C119.583 53.0937 112.453 48.0469 107.375 38.2083C121.104 36.5677 127.062 29.8385 129.635 24.4479C130.838 21.9166 131.443 19.4427 131.724 17.4323C132.432 27.7604 134.453 36.6927 134.474 36.7864C134.49 36.8489 134.526 36.901 134.578 36.9323C134.63 36.9583 134.693 36.9635 134.75 36.9479C151.734 31.2708 154.187 16.625 154.417 10.1771C157.307 27.2031 161.792 34.6406 161.844 34.7135C161.891 34.8021 161.99 34.8385 162.083 34.8125C175.948 30.5989 178.37 11.875 178.786 4.70831C180.38 16.901 182.906 27.6302 185.656 33.7812C189.859 43.1823 194.672 46.4062 195.812 47.0625L194.937 48.0416ZM75.4374 75.1979L72.3854 75.1562C69.8541 75.1198 68.1926 75.0937 63.401 74.9948C63.1874 74.9948 62.9895 74.9844 62.7968 74.9791C62.6093 74.9687 62.4166 74.9583 62.2135 74.9583C62.1666 74.9583 62.0937 74.9791 62.0624 75.0208C62.0156 75.0573 61.9895 75.1094 61.9895 75.1719V77.4062C61.9895 77.5208 62.0885 77.6198 62.2031 77.6198L75.4374 77.6719C75.4895 77.6719 75.5416 77.6458 75.5885 77.6094C75.6249 77.5677 75.651 77.5156 75.651 77.4583V75.4114C75.651 75.2969 75.552 75.1979 75.4374 75.1979ZM75.2239 77.2396L62.4218 77.1927V75.3958C62.5364 75.3958 62.6614 75.401 62.776 75.401C62.9843 75.4114 63.177 75.4219 63.3906 75.4271C68.1874 75.5156 69.8437 75.5469 72.3801 75.5781L75.2239 75.625V77.2396ZM26.4166 66.8541H17.9322C17.8176 66.8541 17.7187 66.9531 17.7187 67.0677V69.9844C17.7187 70.0989 17.8176 70.1979 17.9322 70.1979H26.4166C26.5416 70.1979 26.6406 70.0989 26.6406 69.9844V67.0677C26.6406 66.9531 26.5416 66.8541 26.4166 66.8541ZM26.2031 69.7708H18.1458V67.2812H26.2031V69.7708ZM90.7551 75.4375C90.677 75.4375 89.7864 75.4219 88.4426 75.401C86.9895 75.375 84.9947 75.3489 82.927 75.3125C80.8593 75.2864 78.7239 75.25 76.9635 75.2239C76.901 75.2239 76.8437 75.2448 76.8124 75.2864C76.7656 75.3229 76.7499 75.3854 76.7499 75.4375V77.4687C76.7499 77.5833 76.8385 77.6823 76.9635 77.6823L90.7447 77.7344C90.8072 77.7344 90.8593 77.7187 90.8958 77.6719C90.9426 77.6354 90.9583 77.5833 90.9583 77.5208V75.651C90.9583 75.5364 90.8697 75.4375 90.7551 75.4375ZM90.5312 77.3073L77.1718 77.2552V75.6614C80.6822 75.7135 85.5781 75.7864 88.4322 75.8281C89.4322 75.8437 90.1874 75.8541 90.5312 75.8646V77.3073ZM180.615 66.4219H186.906C187.021 66.4219 187.12 66.3229 187.12 66.1979V64.4062C187.12 64.2916 187.021 64.1927 186.906 64.1927H180.615C180.495 64.1927 180.401 64.2916 180.401 64.4062V66.1979C180.401 66.3229 180.495 66.4219 180.615 66.4219ZM180.823 64.6302H186.693V65.9844H180.823V64.6302ZM52.1614 73.0625L57.2395 73.25H57.2447C57.302 73.25 57.3541 73.2187 57.3958 73.1875C57.4426 73.151 57.4583 73.0885 57.4583 73.0364L57.5416 65C57.5416 64.8854 57.4531 64.7864 57.3385 64.7864L52.2551 64.5833C52.2031 64.5833 52.1406 64.6041 52.1041 64.6458C52.0624 64.6823 52.0364 64.7344 52.0364 64.7969L51.9531 72.8385C51.9531 72.9531 52.0416 73.0521 52.1614 73.0625ZM52.4583 65.0208L57.1145 65.2083L57.0364 72.8125L52.3906 72.6354L52.4583 65.0208ZM24.0416 59.5729H21.427C21.302 59.5729 21.2135 59.6666 21.2135 59.7864V65.3489C21.2135 65.4635 21.302 65.5625 21.427 65.5625H24.0416C24.1562 65.5625 24.2551 65.4635 24.2551 65.3489V59.7864C24.2551 59.6666 24.1562 59.5729 24.0416 59.5729ZM23.8281 65.1354H21.6406V60H23.8281V65.1354ZM97.4479 74.25H102.87C102.984 74.25 103.083 74.151 103.083 74.0364V63.9271C103.083 63.8125 102.984 63.7187 102.87 63.7187H97.4479C97.3229 63.7187 97.2239 63.8125 97.2239 63.9271V74.0364C97.2239 74.151 97.3229 74.25 97.4479 74.25ZM97.6614 64.1406H102.651V73.8229H97.6614V64.1406ZM42.5937 64.4896L37.6666 64.2916C37.6093 64.2916 37.552 64.3125 37.5156 64.3437C37.4687 64.3906 37.4426 64.4427 37.4426 64.4948L37.302 72.3698C37.2916 72.4948 37.3906 72.5937 37.5051 72.5937L42.5156 72.75H42.5208C42.5781 72.75 42.6301 72.7344 42.6718 72.6875C42.7083 72.6562 42.7343 72.5989 42.7343 72.5364L42.8072 64.7083C42.8072 64.5937 42.7083 64.4948 42.5937 64.4896ZM42.3124 72.3177L37.7291 72.1666L37.8697 64.7291L42.3697 64.9114L42.3124 72.3177ZM122.922 77.6458L136.156 77.5937C136.271 77.5937 136.37 77.4948 136.37 77.3802V75.1458C136.37 75.0833 136.344 75.0312 136.297 74.9948C136.266 74.9479 136.208 74.9323 136.156 74.9323H136.146C135.906 74.9323 135.687 74.9427 135.474 74.9479C135.234 74.9583 135.005 74.9687 134.755 74.9687C129.88 75.0677 128.323 75.0937 125.672 75.125L122.922 75.1719C122.807 75.1719 122.708 75.2708 122.708 75.3854V77.4323C122.708 77.4844 122.734 77.5364 122.771 77.5833C122.818 77.6198 122.87 77.6458 122.922 77.6458ZM123.135 75.5989L125.677 75.5521C128.328 75.5156 129.891 75.4896 134.766 75.3958C135.021 75.3958 135.255 75.3854 135.484 75.375C135.635 75.375 135.786 75.3698 135.937 75.3698V77.1666L123.135 77.2135V75.5989ZM137.672 77.5937H137.682L150.51 77.5416C150.625 77.5416 150.719 77.4427 150.719 77.3281V74.7187C150.719 74.6562 150.693 74.6041 150.651 74.5625C150.615 74.526 150.542 74.5052 150.5 74.5052C146.875 74.6302 142.359 74.7812 137.672 74.8906C137.557 74.8958 137.458 74.9844 137.458 75.0989V77.3802C137.458 77.4323 137.484 77.4844 137.521 77.5312C137.568 77.5677 137.62 77.5937 137.672 77.5937ZM137.896 75.3125C142.417 75.2083 146.76 75.0573 150.297 74.9427V77.1146L137.896 77.1562V75.3125ZM30.5729 70.9896H27.6458C27.5312 70.9896 27.4374 71.0833 27.4374 71.1979V74.8333C27.4374 74.9583 27.5312 75.0469 27.6458 75.0469H30.5729C30.6979 75.0469 30.7864 74.9583 30.7864 74.8333V71.1979C30.7864 71.0833 30.6979 70.9896 30.5729 70.9896ZM30.3593 74.625H27.8593V71.4114H30.3593V74.625ZM170.844 70.1719H179.406C179.531 70.1719 179.62 70.0729 179.62 69.9583V67.0416C179.62 66.9271 179.531 66.8281 179.406 66.8281H170.844C170.729 66.8281 170.63 66.9271 170.63 67.0416V69.9583C170.63 70.0729 170.729 70.1719 170.844 70.1719ZM171.057 67.2552H179.193V69.7448H171.057V67.2552ZM156.021 72.6875C156.057 72.7344 156.12 72.75 156.172 72.75H156.182L161.219 72.5677C161.333 72.5573 161.422 72.4687 161.422 72.3541V64.2916C161.422 64.2291 161.401 64.1771 161.359 64.1354C161.312 64.0989 161.271 64.0729 161.198 64.0781L156.193 64.3281C156.078 64.3385 155.99 64.4323 155.99 64.5416L155.958 72.5364C155.958 72.5937 155.979 72.6562 156.021 72.6875ZM156.411 64.7448L160.995 64.5156V72.151L156.385 72.3177L156.411 64.7448ZM16.7343 63.7708H9.68744C9.57286 63.7708 9.4739 63.8646 9.4739 63.9844L9.44785 66.2187C9.44785 66.2708 9.46869 66.3229 9.51035 66.3698C9.54681 66.401 9.60931 66.4271 9.6614 66.4271L16.7343 66.4479C16.7916 66.4479 16.8437 66.4219 16.8854 66.3854C16.9218 66.3385 16.9479 66.2864 16.9479 66.2239V63.9844C16.9479 63.8646 16.8489 63.7708 16.7343 63.7708ZM16.5156 66.0104L9.87494 66.0052L9.90098 64.1927H16.5156V66.0104ZM109.828 77.6823L121.406 77.6458C121.521 77.6458 121.62 77.5469 121.62 77.4323V75.3958C121.62 75.3385 121.594 75.2864 121.547 75.2448C121.51 75.2083 121.469 75.1719 121.396 75.1823C118.781 75.2239 115.5 75.2864 113.073 75.3333C111.458 75.3594 110.24 75.375 109.828 75.3854C109.703 75.3854 109.615 75.4844 109.615 75.5989V77.4687C109.615 77.5312 109.635 77.5833 109.677 77.6198C109.713 77.6614 109.776 77.6823 109.828 77.6823ZM110.042 75.8125C110.583 75.8021 111.693 75.7812 113.083 75.7552C115.443 75.7135 118.615 75.651 121.187 75.6146V77.2187L110.042 77.2552V75.8125ZM60.6874 74.9166C55.9062 74.8073 51.5208 74.6666 47.8593 74.5416C47.8229 74.5521 47.7447 74.5625 47.7083 74.6041C47.6614 74.6406 47.6354 74.7031 47.6354 74.7552V77.3541C47.6354 77.4687 47.7343 77.5677 47.8489 77.5677L60.677 77.6198H60.6874C60.7395 77.6198 60.7916 77.5937 60.8385 77.5573C60.8697 77.5156 60.901 77.4583 60.901 77.4062V75.1302C60.901 75.0104 60.802 74.9219 60.6874 74.9166ZM60.4635 77.1823L48.0624 77.1406V74.9791C51.6354 75.0989 55.8645 75.2344 60.4635 75.3385V77.1823ZM166.729 74.9844H169.609C169.734 74.9844 169.823 74.8854 169.823 74.7708V71.0833C169.823 70.9583 169.734 70.8646 169.609 70.8646H166.729C166.604 70.8646 166.516 70.9583 166.516 71.0833V74.7708C166.516 74.8854 166.604 74.9844 166.729 74.9844ZM166.943 71.2969H169.396V74.5625H166.943V71.2969ZM46.3333 74.5052C38.5156 74.2344 32.5156 73.9844 32.1249 73.9687C32.0729 73.9687 32.0104 73.9844 31.9635 74.026C31.9218 74.0625 31.8958 74.125 31.8958 74.1771V77.3021C31.8958 77.4166 31.9895 77.5104 32.1093 77.5104L46.3229 77.5677C46.3854 77.5677 46.4426 77.5416 46.4739 77.5052C46.5208 77.4583 46.5468 77.4062 46.5468 77.3541V74.7187C46.5468 74.6041 46.4479 74.5052 46.3333 74.5052ZM46.1145 77.1302L32.3281 77.0885V74.401C33.5364 74.4531 39.0676 74.6771 46.1145 74.9219V77.1302ZM152.031 77.5208L165.203 77.4687C165.318 77.4687 165.417 77.3698 165.417 77.2552V74.1771C165.417 74.125 165.391 74.0625 165.354 74.026C165.312 73.9844 165.26 73.9687 165.198 73.9687C164.458 74 159.505 74.1979 152.026 74.4635C151.906 74.4635 151.812 74.5625 151.812 74.6771V77.3073C151.812 77.3646 151.838 77.4219 151.88 77.4583C151.917 77.5052 151.969 77.5208 152.031 77.5208ZM152.245 74.8802C159.078 74.6406 163.771 74.4531 164.99 74.4114V77.0416L152.245 77.0937V74.8802ZM107.276 93.6562V65.6406C107.276 65.5625 107.234 65.4896 107.161 65.4531C106.016 64.8229 105.167 63.5573 104.651 61.6771C104.115 59.7187 101.656 59.3073 100.245 59.2396H100.24C99.2291 59.2187 95.8749 59.3437 95.2031 61.6927C94.5104 64.125 93.7604 65.1614 93.3749 65.5625C93.3333 65.5937 93.3177 65.651 93.3177 65.7135V93.8906L91.3333 93.8958V94.3229L108.802 94.2604V93.8281L107.276 93.8385V93.6562ZM95.6197 61.8073C96.2031 59.7604 99.2968 59.6562 100.229 59.6666C101.521 59.7239 103.766 60.0885 104.234 61.7916C104.766 63.7239 105.646 65.0625 106.849 65.7656V74.4479L93.7395 74.4219V65.7916C94.4322 65.0364 95.0989 63.6302 95.6197 61.8125V61.8073ZM93.7395 74.8489L106.849 74.875V93.6562H93.7395V74.8489ZM106.141 86.651L94.2864 86.6666V86.2396L106.141 86.2239V86.651ZM104.005 44.1354C103.99 44.25 103.891 44.3333 103.776 44.3229C102.703 44.2239 101.62 44.1562 100.542 44.1354C99.4635 44.1146 98.3854 44.151 97.3072 44.2031C97.1926 44.2083 97.0989 44.1041 97.0937 43.9896C97.0885 43.8698 97.177 43.7812 97.2968 43.776C98.3802 43.7239 99.4635 43.6875 100.557 43.7083C101.646 43.7291 102.729 43.8073 103.818 43.9062C103.932 43.9166 104.016 44.0156 104 44.1354H104.005ZM102.01 45.2969C102.713 45.3073 103.406 45.3333 104.109 45.3489C104.229 45.3541 104.328 45.4479 104.323 45.5625C104.318 45.6823 104.213 45.7812 104.099 45.7812C102.703 45.7396 101.307 45.7083 99.9166 45.7396C99.7968 45.7396 99.7031 45.6406 99.6979 45.526C99.6979 45.4062 99.7812 45.3125 99.901 45.3125C100.604 45.2969 101.312 45.2916 102.01 45.2969ZM98.3229 45.3125C98.4426 45.3021 98.5416 45.3958 98.552 45.5104C98.5624 45.6302 98.4791 45.7291 98.3645 45.7396C97.8489 45.7812 97.3437 45.8177 96.8281 45.8437C96.7083 45.8489 96.6041 45.7604 96.5989 45.6458C96.5937 45.526 96.6822 45.4219 96.802 45.4166C97.3124 45.3906 97.8124 45.3541 98.3229 45.3125ZM127.599 47.3437C126.219 47.2656 124.859 47.0729 123.5 46.8229C123.385 46.8021 123.318 46.6979 123.338 46.5833C123.359 46.4635 123.463 46.3854 123.578 46.4062C124.922 46.651 126.266 46.8385 127.63 46.9166C130.338 47.0677 133.062 46.8802 135.766 46.7031C135.88 46.6927 135.984 46.7708 135.995 46.8906C136 47.0052 135.911 47.1094 135.792 47.1146C133.068 47.2916 130.328 47.4948 127.599 47.3437ZM99.7135 34.7396C98.1302 40.9375 95.7291 47.0469 91.052 51.5781C90.9687 51.6614 90.8437 51.6614 90.7604 51.5781C90.677 51.4948 90.677 51.3541 90.7604 51.2708C95.3749 46.7969 97.7343 40.7656 99.2968 34.6458C99.3281 34.5312 99.4374 34.4531 99.552 34.4844C99.6666 34.5156 99.7395 34.625 99.7135 34.7396ZM102.838 40.875C102.838 40.9896 102.745 41.0885 102.625 41.0885C101.344 41.0521 100.047 41.1041 98.776 40.8854C98.6614 40.8646 98.5833 40.7604 98.6041 40.6458C98.6249 40.5312 98.7291 40.4531 98.8437 40.4739C100.094 40.6875 101.375 40.625 102.641 40.6614C102.755 40.6614 102.844 40.7552 102.838 40.875ZM98.401 42.5052C98.2864 42.4948 98.2083 42.3958 98.2187 42.276C98.2239 42.1614 98.3281 42.0781 98.4427 42.0885C99.1927 42.151 99.9531 42.1094 100.703 42.0781C100.818 42.0729 100.911 42.1614 100.917 42.276C100.922 42.3958 100.833 42.4844 100.713 42.4896C99.9479 42.526 99.1718 42.5677 98.4062 42.5052H98.401ZM142.115 48.7708C142.115 48.7812 142.125 48.7812 142.125 48.7864C142.135 48.8073 142.099 48.8177 142.099 48.8385C142.104 48.901 142.141 48.9687 142.083 49.0156C142.068 49.026 142.052 49.0052 142.031 49.0156C142.016 49.026 142.021 49.0469 142.005 49.0521C140.062 49.8125 137.974 50.1875 135.911 50.4323C132.427 50.8385 128.885 50.8229 125.437 50.1771C125.323 50.1562 125.255 50.0364 125.276 49.9219C125.297 49.8073 125.401 49.7291 125.516 49.75C128.687 50.3437 131.927 50.4114 135.135 50.0937C137.312 49.8854 139.531 49.5104 141.594 48.7448C138.802 45.4375 136.427 41.8021 134.87 37.7448C134.828 37.6354 134.88 37.5208 134.99 37.4791C135.099 37.4375 135.229 37.4896 135.271 37.5989C136.849 41.7083 139.266 45.3802 142.115 48.7187C142.125 48.7344 142.104 48.7552 142.115 48.7708ZM101.771 38.3489C101.76 38.4635 101.661 38.5573 101.542 38.5469C100.901 38.5052 100.25 38.4583 99.6041 38.4427C99.4895 38.4375 99.401 38.3281 99.4062 38.2135C99.4114 38.0937 99.4999 38.0104 99.6197 38.0156C100.271 38.0312 100.922 38.0781 101.573 38.1198C101.687 38.1302 101.781 38.2291 101.771 38.3489ZM101.958 39.5364C101.958 39.6562 101.859 39.75 101.745 39.75C100.99 39.7448 100.245 39.7656 99.4999 39.6719C99.3801 39.6562 99.2968 39.5469 99.3124 39.4323C99.3281 39.3125 99.4374 39.2396 99.552 39.2552C100.281 39.3489 101.021 39.3177 101.755 39.3229C101.875 39.3229 101.958 39.4219 101.958 39.5364ZM103.213 42.3958C103.213 42.5156 103.115 42.6146 103 42.6094C102.661 42.6041 102.312 42.6041 101.969 42.5989C101.854 42.5937 101.755 42.5 101.755 42.3854C101.76 42.2656 101.865 42.1666 101.984 42.1719C102.323 42.1771 102.661 42.1771 103 42.1823C103.115 42.1875 103.213 42.2812 103.213 42.3958ZM97.1458 47.6354C97.3541 48.5833 97.276 49.5521 97.3489 50.5104C97.3541 50.625 97.276 50.7291 97.1614 50.7396C97.0416 50.7448 96.927 50.6666 96.9218 50.5521C96.8489 49.6094 96.9374 48.6406 96.7343 47.7187C96.7083 47.6041 96.7812 47.5 96.8906 47.4739C97.0051 47.4531 97.1197 47.5208 97.1458 47.6354ZM95.1562 49.3489C95.2239 50.5104 95.2187 51.6719 95.2083 52.8385C95.2083 52.9531 95.1145 53.0521 94.9947 53.0521C94.8801 53.0469 94.7812 52.9531 94.7812 52.8385C94.7916 51.6823 94.7968 50.526 94.7291 49.375C94.7239 49.2552 94.8124 49.1562 94.927 49.1458C95.0468 49.1406 95.151 49.2291 95.1562 49.3489ZM113.396 56.0989C113.495 56.1562 113.536 56.2916 113.474 56.3906C113.417 56.4896 113.281 56.5156 113.182 56.4583C112.401 55.9896 111.651 55.4323 111.109 54.6927C110.969 54.4948 110.849 54.2969 110.74 54.0781C110.682 53.9739 110.724 53.8385 110.833 53.7864C110.885 53.7552 110.937 53.7552 110.99 53.7708C111.042 53.7864 111.083 53.8281 111.109 53.8802C111.62 54.8594 112.463 55.5416 113.396 56.0989ZM113.182 58.0208C113.281 58.0833 113.312 58.2135 113.25 58.3177C113.187 58.4166 113.068 58.4427 112.969 58.3854C112.552 58.125 112.109 57.901 111.698 57.6354C111.49 57.5 111.266 57.3541 111.083 57.1823C110.766 56.8698 110.557 56.4635 110.297 56.1094C110.224 56.0156 110.255 55.8854 110.349 55.8177C110.396 55.7812 110.458 55.7708 110.51 55.776C110.562 55.7864 110.609 55.8125 110.641 55.8594C110.891 56.1927 111.078 56.5833 111.38 56.875C111.578 57.0677 111.823 57.2239 112.057 57.3698C112.427 57.5937 112.812 57.7969 113.182 58.0208ZM98.9531 49.1094C99.0781 50.4427 99.0468 51.776 99.0572 53.1146C99.0572 53.2344 98.9635 53.3281 98.8437 53.3281C98.7291 53.3333 98.6302 53.25 98.6302 53.1302C98.6197 51.8021 98.651 50.4687 98.526 49.1458C98.5104 49.0312 98.6093 48.9323 98.7239 48.9219C98.8385 48.9114 98.9426 48.9896 98.9531 49.1094ZM152.391 25.2239C151.396 27.2448 149.99 29.0521 148.755 30.9271C148.687 31.026 148.557 31.0625 148.458 30.9948C148.365 30.9323 148.344 30.8021 148.406 30.7031C149.63 28.8385 151.026 27.0416 152.016 25.0364C153.245 22.5364 153.917 19.8229 154.338 17.0833C154.359 16.9687 154.479 16.8906 154.594 16.9062C154.708 16.9271 154.786 17.0312 154.766 17.151C154.338 19.9323 153.635 22.6823 152.391 25.2239ZM114.213 55.5625C113.37 54.9687 112.682 54.1823 112.088 53.3437C112.021 53.25 112.047 53.1198 112.141 53.0521C112.187 53.0156 112.25 53 112.302 53.0104C112.354 53.0208 112.401 53.0573 112.432 53.1041C113 53.901 113.651 54.6458 114.453 55.2135C114.781 55.4479 115.13 55.6406 115.495 55.8021C115.599 55.8541 115.651 55.9791 115.604 56.0833C115.552 56.1927 115.427 56.2396 115.323 56.1927C114.932 56.0156 114.562 55.8125 114.213 55.5625ZM105.047 37.9739C104.151 35.9583 103.458 33.8802 102.906 31.7448C102.875 31.6302 102.943 31.5052 103.052 31.4791C103.167 31.4479 103.292 31.526 103.323 31.6354C103.865 33.75 104.547 35.8021 105.432 37.7969C107.578 42.651 110.656 47 114.078 51.0312C114.151 51.1198 114.141 51.25 114.052 51.3281C113.963 51.401 113.833 51.401 113.755 51.3125C110.307 47.25 107.208 42.8646 105.047 37.9739ZM100.088 30.3281C100.109 25.9531 100.156 21.5781 100.219 17.2031C100.224 17.0833 100.318 17 100.437 17C100.552 17.0052 100.651 17.0989 100.651 17.2135C100.583 21.5885 100.536 25.9635 100.516 30.3437C100.516 30.4583 100.417 30.5416 100.302 30.5416C100.182 30.5416 100.088 30.4479 100.088 30.3281ZM92.7499 43.5312C93.4583 42.2916 94.1666 41.0469 94.7708 39.75C96.0416 37.0312 97.0885 34.1823 98.151 31.3698C98.1927 31.2604 98.3229 31.2083 98.4322 31.25C98.5416 31.2916 98.5937 31.4219 98.552 31.5312C97.4843 34.3489 96.4322 37.1927 95.1562 39.9271C94.6301 41.0521 94.0104 42.1406 93.4062 43.2239C92.276 45.2656 91.0468 47.2604 89.5312 49.0416C88.5937 50.1406 87.5468 51.1302 86.4426 52.0625C86.3541 52.1354 86.2239 52.125 86.151 52.0364C86.0729 51.9427 86.0729 51.8177 86.1614 51.7396C87.2499 50.8229 88.2864 49.8437 89.2083 48.7604C90.5781 47.151 91.7083 45.3646 92.7499 43.5364V43.5312ZM192.104 47.1979C192.802 47.0833 194.661 46.7708 194.693 46.7656L194.776 47.1823C194.745 47.1875 192.87 47.5 192.167 47.6094C190.161 47.9323 188.052 48.2604 185.927 48.5573C185.276 48.651 183.016 48.9635 182.505 49.026C180.213 49.3229 177.75 49.6094 175.292 49.8802C174.432 49.9791 172.057 50.2396 172.016 50.2448L171.979 49.8177C172.021 49.8125 174.391 49.5521 175.25 49.4531C177.708 49.1823 180.161 48.8958 182.453 48.5989C182.958 48.5364 185.208 48.2239 185.859 48.1302C187.984 47.8333 190.099 47.5156 192.104 47.1979ZM153.323 53.1719C158.484 52.6041 163.651 52.1719 168.745 51.125C168.859 51.1041 168.974 51.1719 169 51.2864C169.021 51.401 168.953 51.5156 168.838 51.5416C163.734 52.5885 158.552 53.0312 153.375 53.5989C153.26 53.6094 153.151 53.526 153.135 53.4114C153.125 53.2969 153.208 53.1823 153.323 53.1719ZM155.37 28.2552C154.838 30.4375 153.781 32.4114 152.76 34.3906C152.708 34.4948 152.573 34.5364 152.469 34.4844C152.365 34.4323 152.323 34.2969 152.375 34.1927C153.38 32.2396 154.432 30.2969 154.953 28.151C155.682 25.151 155.552 22.0052 155.38 18.9531C155.375 18.8385 155.463 18.7448 155.583 18.7396C155.698 18.7344 155.802 18.8229 155.807 18.9375C155.979 22.0364 156.104 25.2135 155.37 28.2552ZM161.865 42.0521C162.818 43.8489 163.885 45.6041 165.187 47.1666C165.266 47.2604 165.255 47.3906 165.161 47.4635C165.073 47.5364 164.943 47.526 164.87 47.4375C163.667 45.9948 162.667 44.4062 161.771 42.7604C160.682 40.7656 159.698 38.6771 159.161 36.4635C159.135 36.3489 159.198 36.2239 159.312 36.1979C159.422 36.1666 159.552 36.2448 159.578 36.3541C160.057 38.3489 160.901 40.2448 161.865 42.0521ZM178.474 46.1666C181.963 45.8437 185.469 45.7031 188.88 44.8594C188.995 44.8281 189.109 44.901 189.135 45.0156C189.161 45.1302 189.104 45.2448 188.99 45.2708C185.552 46.1198 182.021 46.2656 178.51 46.5937C178.396 46.6041 178.297 46.5104 178.286 46.3958C178.276 46.276 178.354 46.1771 178.474 46.1666ZM179.463 24.901C179.724 22.7448 179.75 20.5729 179.729 18.4062C179.729 18.2864 179.812 18.1927 179.927 18.1927C180.047 18.1927 180.141 18.276 180.141 18.3906C180.167 20.5781 180.151 22.7812 179.891 24.9531C179.698 26.5416 179.354 28.0885 178.937 29.6354C178.911 29.7448 178.786 29.8125 178.672 29.7812C178.562 29.75 178.495 29.625 178.526 29.5104C178.937 27.9896 179.271 26.4687 179.463 24.901ZM184.63 38.0781C183.807 36.6406 183.182 35.1146 182.641 33.5469C182.604 33.4375 182.667 33.3177 182.776 33.2812C182.885 33.2448 183.005 33.3073 183.042 33.4166C183.573 34.9583 184.182 36.4479 184.995 37.8646C185.578 38.8854 186.271 39.8437 187 40.7656C187.073 40.8594 187.052 40.9896 186.958 41.0625C186.865 41.1354 186.734 41.1146 186.661 41.0208C185.922 40.0833 185.229 39.1198 184.635 38.0781H184.63ZM172.953 30.9583C172.854 30.8958 172.828 30.7604 172.885 30.6614C173.99 28.8281 175.13 27.0312 175.922 25.0364C177.328 21.4583 177.922 17.6302 178.713 13.8854C178.734 13.7708 178.854 13.6875 178.969 13.7135C179.078 13.7396 179.151 13.8541 179.125 13.9687C178.333 17.7344 177.74 21.5989 176.318 25.1979C175.526 27.2187 174.359 29.0364 173.245 30.8906C173.187 30.9896 173.052 31.0156 172.953 30.9583ZM100.005 36.7448C99.9999 36.625 100.078 36.5208 100.193 36.5156C100.234 36.5156 100.276 36.5156 100.297 36.5156C100.312 36.5104 100.349 36.5052 100.37 36.5052C100.391 36.5 100.411 36.5052 100.432 36.5052C100.469 35.8802 100.495 35.2552 100.432 34.6302C100.422 34.5156 100.505 34.401 100.62 34.3906C100.74 34.3802 100.838 34.4739 100.849 34.5885C100.911 35.2239 100.891 35.8437 100.865 36.4739C100.87 36.4739 100.87 36.4739 100.875 36.4739C100.995 36.4687 101.083 36.5573 101.088 36.6771C101.094 36.7916 101.005 36.8958 100.891 36.901C100.838 36.9062 100.844 36.901 100.833 36.901C100.828 37.0677 100.828 37.2344 100.823 37.3958C100.818 37.5156 100.713 37.6041 100.594 37.5989C100.479 37.5937 100.385 37.4896 100.396 37.3698C100.401 37.2187 100.411 37.0781 100.422 36.9323C100.411 36.9323 100.401 36.9323 100.396 36.9323C100.365 36.9323 100.344 36.9271 100.312 36.9323C100.26 36.9323 100.307 36.9375 100.219 36.9427C100.104 36.9479 100.01 36.8594 100.005 36.7448ZM131.49 24.2604C131.505 24.1458 131.615 24.0573 131.729 24.0729C131.844 24.0885 131.932 24.1979 131.917 24.3125C131.578 27.0937 131.474 29.9427 130.62 32.625C130.167 34.0625 129.495 35.3646 128.656 36.6094C128.594 36.7083 128.458 36.7448 128.365 36.6771C128.266 36.6094 128.245 36.4791 128.307 36.3854C129.125 35.1719 129.781 33.901 130.219 32.5052C131.062 29.8489 131.156 27.0104 131.49 24.2604ZM12.6718 46.5416C10.4166 46.1354 8.08327 45.7187 5.81765 45.2864C5.02077 45.1354 2.86973 44.7031 2.83327 44.6979L2.9166 44.2812C2.95306 44.2916 5.1041 44.7083 5.89577 44.8594C8.1614 45.2864 10.4843 45.7239 12.7395 46.125C13.3333 46.2344 13.9166 46.3333 14.4895 46.4323C19.4426 47.3021 23.0885 47.8437 24.8593 47.9427L24.8333 48.375C23.0416 48.2708 19.3958 47.7291 14.4218 46.8646C13.8489 46.7604 13.2656 46.6458 12.6718 46.5416ZM131.943 37.6666C132.052 37.625 132.172 37.6771 132.213 37.7864C132.927 39.7291 133.646 41.6719 134.432 43.5885C134.474 43.6979 134.417 43.8229 134.307 43.8698C134.203 43.9114 134.073 43.8541 134.031 43.75C133.245 41.8281 132.542 39.8802 131.823 37.9323C131.786 37.8229 131.833 37.7083 131.943 37.6666ZM7.83327 42.3958C7.85931 42.2812 7.9739 42.2083 8.08848 42.2396C10.7864 42.8906 13.5051 43.4791 16.2499 43.8802C18.2187 44.1666 20.1874 44.3541 22.1718 44.4687C22.2864 44.4791 22.3801 44.5781 22.3697 44.6979C22.3645 44.8125 22.2604 44.8906 22.1458 44.8854C20.151 44.7656 18.1614 44.5989 16.1822 44.3073C13.4218 43.9062 10.7031 43.3125 7.99473 42.651C7.88015 42.625 7.80723 42.5104 7.83327 42.3958ZM33.677 43.75C35.026 42.0364 36.3176 40.2812 37.4426 38.4166C38.2499 37.0833 38.9583 35.6979 39.6093 34.2864C39.6562 34.1771 39.7864 34.1406 39.8906 34.1927C39.9947 34.2396 40.0468 34.3646 39.9947 34.4739C39.3385 35.901 38.6197 37.2969 37.8072 38.6406C36.6666 40.5208 35.3697 42.2916 34.0104 44.0156C33.9374 44.1041 33.8072 44.1146 33.7187 44.0416C33.6249 43.9687 33.6041 43.8385 33.677 43.75ZM106.224 88.375V88.8021L94.3697 88.8177V88.3906L106.224 88.375ZM25.5676 29.6875C21.9739 24.6406 20.1666 18.3437 20.3958 12.1614C20.401 12.0469 20.4895 11.9479 20.6093 11.9479C20.7239 11.9531 20.8124 12.0625 20.8072 12.1771C20.5833 18.2656 22.3749 24.4635 25.9114 29.4323C25.9791 29.526 25.9531 29.6562 25.8593 29.7291C25.7656 29.7969 25.6354 29.7812 25.5676 29.6875ZM10.9583 37.9739C10.8697 37.901 10.8489 37.7708 10.9218 37.6771C12.5833 35.5469 13.7499 33.1875 14.7135 30.6771C14.7551 30.5677 14.8749 30.5156 14.9843 30.5573C15.0937 30.5989 15.1458 30.7291 15.1041 30.8385C14.1249 33.3906 12.9426 35.7812 11.2551 37.9479C11.1822 38.0364 11.052 38.0469 10.9583 37.9739ZM19.6614 22.6562C19.2708 20.4479 19.1874 18.2083 19.2864 15.9739C19.2916 15.8541 19.3801 15.7656 19.4999 15.7708C19.6145 15.776 19.7031 15.8698 19.6979 15.9844C19.6041 18.1927 19.6874 20.3958 20.0729 22.5781C20.526 25.125 21.3645 27.5625 22.3749 29.9427C22.4166 30.0469 22.3593 30.1771 22.2499 30.2187C22.1458 30.2656 22.0312 30.2239 21.9843 30.1146C20.9635 27.7083 20.1145 25.2396 19.6614 22.6562ZM106.198 82.2031L94.3437 82.2135V81.7864L106.198 81.776V82.2031ZM95.1458 78.0469L95.1302 77.6198L105.088 77.526V77.9531L95.1458 78.0469ZM47.5051 34.7239C45.1718 30.2291 43.6562 25.3594 43.6197 20.2656C43.6197 20.1458 43.7135 20.0521 43.8333 20.0521C43.9479 20.0469 44.0468 20.1354 44.0468 20.25C44.0833 25.276 45.5781 30.0885 47.8801 34.526C47.9374 34.6302 47.8906 34.7656 47.7864 34.8177C47.6822 34.875 47.5624 34.8281 47.5051 34.7239ZM105.609 80.276L94.4895 80.25V79.8229L105.609 79.8489V80.276ZM106.141 84.3802L94.2916 84.3958V83.9687L106.141 83.9531V84.3802ZM104.016 75.8958L96.2552 75.9583V75.5312L104.016 75.4635V75.8958ZM94.3437 90.4114L106.198 90.3958V90.8229L94.3437 90.8385V90.4114ZM91.2812 96.0521L108.75 95.9844V96.4114L91.2812 96.4791V96.0521ZM94.3177 92.3489L106.167 92.3333V92.7604L94.3177 92.776V92.3489ZM126.469 31.8802C126.375 31.8073 126.354 31.6771 126.427 31.5833C127.724 29.8541 128.927 28.0469 129.807 26.0625C130.437 24.6458 130.865 23.1771 131.146 21.6562C131.167 21.5364 131.271 21.4583 131.385 21.4791C131.5 21.5 131.578 21.6198 131.557 21.7344C131.276 23.2916 130.838 24.7916 130.193 26.2396C129.302 28.25 128.073 30.0677 126.76 31.8281C126.693 31.9219 126.562 31.9479 126.469 31.8802ZM88.7447 57.7969C89.0729 57.4531 89.4062 57.1094 89.7343 56.7656C89.7708 56.7239 89.8281 56.7031 89.8801 56.6979C89.9322 56.6979 89.9843 56.7239 90.026 56.7656C90.1093 56.8489 90.1197 56.9739 90.0416 57.0625C89.7135 57.401 89.3802 57.75 89.052 58.0885C88.9687 58.1771 88.8437 58.1823 88.7551 58.1041C88.6718 58.0208 88.6614 57.8802 88.7447 57.7969ZM100.838 47.7864C100.828 48.5 100.875 49.2187 100.917 49.9375C100.922 50.0521 100.833 50.1562 100.719 50.1614C100.599 50.1719 100.495 50.0781 100.49 49.9635C100.448 49.2344 100.401 48.5104 100.411 47.7864C100.411 47.6666 100.505 47.5677 100.625 47.5729C100.74 47.5729 100.838 47.6666 100.838 47.7864ZM110.656 51.9427C110.578 52.026 110.437 52.0364 110.349 51.9531C109.338 51.0104 108.396 50.026 107.547 48.9323C107.005 48.2396 106.557 47.4844 106.088 46.7396C106.078 46.8333 106.036 46.9271 105.943 46.9427C102.443 47.5 98.8958 46.8073 95.3854 47.1041C95.2708 47.1146 95.1666 47.0312 95.1562 46.9166C95.151 46.7969 95.2395 46.6875 95.3593 46.6771C97.2395 46.5156 99.1197 46.6406 101 46.7031C102.625 46.7552 104.26 46.7864 105.875 46.526C105.948 46.5156 105.974 46.5885 106.021 46.6354C103.75 42.9948 102.292 38.901 101.411 34.6979C101.385 34.5833 101.458 34.4687 101.573 34.4427C101.687 34.4219 101.802 34.4896 101.828 34.6041C102.88 39.6406 104.693 44.5729 107.88 48.6666C108.713 49.7396 109.651 50.7187 110.646 51.6458C110.729 51.7291 110.74 51.8541 110.656 51.9427ZM46.9166 25.7031C45.4635 22.8906 44.7239 19.8594 44.3385 16.7344C44.3281 16.6198 44.4114 16.5104 44.526 16.4948C44.6406 16.4791 44.7551 16.5625 44.7656 16.6823C45.1458 19.7552 45.8593 22.7448 47.2916 25.5156C48.9687 28.7552 51.4322 31.4323 54.0833 33.8958C54.1666 33.9791 54.1718 34.1198 54.0937 34.2031C54.0156 34.2916 53.8749 34.2864 53.7864 34.2031C51.1041 31.7031 48.6145 28.9896 46.9166 25.7031ZM102.292 49.2656C102.354 50.6354 102.411 52 102.453 53.3698C102.458 53.4896 102.359 53.5937 102.24 53.5989C102.125 53.6041 102.031 53.5 102.026 53.3854C101.984 52.0156 101.927 50.651 101.865 49.2812C101.859 49.1614 101.963 49.0729 102.078 49.0677C102.198 49.0625 102.286 49.151 102.292 49.2656ZM105.568 49.5208C105.75 50.8594 105.844 52.1979 105.901 53.5469C105.906 53.6614 105.818 53.7656 105.703 53.7708C105.583 53.776 105.49 53.6875 105.484 53.5729C105.427 52.2344 105.333 50.901 105.151 49.5781C105.135 49.4583 105.224 49.3489 105.338 49.3333C105.453 49.3177 105.552 49.4062 105.568 49.5208ZM85.8697 55.9531C85.8176 55.8489 85.8593 55.7239 85.9635 55.6719C86.2343 55.5312 86.4843 55.3594 86.7135 55.1614C87.276 54.6771 87.6874 54.0469 88.0624 53.4114C88.0937 53.3594 88.1301 53.3333 88.1822 53.3177C88.2343 53.3021 88.2916 53.3021 88.3437 53.3333C88.4427 53.3906 88.4843 53.526 88.4218 53.625C88.026 54.3021 87.5885 54.9635 86.9947 55.4844C86.7395 55.7031 86.4635 55.8906 86.1666 56.0469C86.0624 56.0989 85.927 56.0521 85.8697 55.9531ZM104.083 47.8802C104.141 48.6354 104.083 49.3958 104.057 50.151C104.052 50.2656 103.958 50.3541 103.844 50.3489C103.724 50.3489 103.625 50.2552 103.63 50.1354C103.656 49.3958 103.713 48.6562 103.656 47.9166C103.646 47.8021 103.74 47.6979 103.854 47.6927C103.974 47.6823 104.073 47.7604 104.083 47.8802ZM88.8124 55.3073C88.8749 55.1875 88.9322 55.0677 88.9947 54.9479C89.026 54.8958 89.0781 54.8541 89.1301 54.8437C89.1822 54.8281 89.2395 54.8385 89.2916 54.8698C89.3958 54.9219 89.427 55.0469 89.3697 55.151C88.9531 55.9114 88.526 56.8802 87.552 57.0052C87.4374 57.0208 87.3437 56.9479 87.3281 56.8333C87.3124 56.7187 87.3854 56.6094 87.4999 56.5937C88.1614 56.5104 88.526 55.8385 88.8124 55.3073ZM60.3854 48.4271C60.2864 48.3698 60.2551 48.2344 60.3072 48.1302C60.3385 48.0729 60.776 47.2708 60.9374 46.9583C61.401 46.0573 61.8541 45.1406 62.2864 44.2448C62.4114 43.9791 62.5416 43.7187 62.6614 43.4687C62.9114 42.9271 63.1406 42.4219 63.3385 41.9583C63.8489 40.776 64.2656 39.6562 64.5989 38.6302C64.7135 38.2708 64.7968 37.9427 64.8749 37.6666C64.9218 37.5 64.9583 37.3906 64.9687 37.3333L65.3854 37.4271C65.3697 37.4896 65.3385 37.6146 65.2916 37.7864C65.2135 38.0729 65.1145 38.3958 64.9999 38.7604C64.6614 39.8021 64.2447 40.9375 63.7291 42.1302C63.526 42.5989 63.302 43.1094 63.0468 43.6562C62.927 43.9062 62.802 44.1666 62.6718 44.4323C62.2395 45.3333 61.776 46.2552 61.3072 47.1562C61.1718 47.4219 60.9062 47.9375 60.7864 48.1614C60.9218 48.2291 61.0833 48.3021 61.2708 48.3854C61.8124 48.6354 62.4426 48.8854 63.1666 49.1198C66.5781 50.2291 70.5364 50.5833 74.8749 49.7239L74.9531 50.1354C70.5416 51.0104 66.5104 50.651 63.0312 49.5208C62.2968 49.2812 61.6406 49.0312 61.0833 48.776C60.8854 48.6823 60.7187 48.5937 60.5729 48.5208C60.4843 48.4739 60.4218 48.4427 60.3854 48.4271ZM65.9583 46.6771C69.4895 47.4062 72.8958 47.0833 76.4114 46.4635C76.526 46.4427 76.6301 46.5208 76.651 46.6354C76.6718 46.75 76.6041 46.8541 76.4895 46.875C72.9218 47.5052 69.4635 47.8281 65.8801 47.0885C65.7656 47.0677 65.6979 46.9479 65.7187 46.8333C65.7447 46.7187 65.8437 46.651 65.9583 46.6771ZM84.5989 56.1927C84.5156 56.1094 84.5051 55.9791 84.5885 55.8958C84.6301 55.8541 84.6926 55.8333 84.7499 55.8333C84.802 55.8281 84.8541 55.8437 84.8958 55.8854C85.6301 56.6146 86.401 57.3021 87.1926 57.9687C87.2812 58.0469 87.2968 58.1875 87.2187 58.276C87.1458 58.3646 87.0156 58.3802 86.927 58.3021C86.1249 57.6302 85.3437 56.9271 84.5989 56.1927ZM45.4479 51.3802C48.7343 51.7187 52.0104 51.9427 55.3124 52.0729C55.427 52.0781 55.5312 52.1719 55.526 52.2864C55.5208 52.4062 55.4114 52.4948 55.2968 52.4896C51.9895 52.3541 48.6874 52.1458 45.3958 51.8073C40.7864 51.3333 36.2083 50.6354 31.6458 49.8437C31.5312 49.8229 31.4531 49.7187 31.4739 49.6041C31.4895 49.4896 31.5989 49.4062 31.7135 49.4271C36.2656 50.2187 40.8489 50.9062 45.4479 51.3802ZM65.3072 43.6666C66.0781 41.8281 66.6197 39.9427 67.0312 37.9896C67.052 37.875 67.1666 37.7916 67.2812 37.8125C67.3958 37.8385 67.4687 37.9531 67.4426 38.0677C67.0312 40.0469 66.4791 41.9635 65.6926 43.8281C65.6458 43.9375 65.5312 43.9948 65.427 43.9479C65.3176 43.901 65.2604 43.776 65.3072 43.6666ZM72.9739 39.8073C70.7499 36.0156 68.7812 32.2031 68.2031 27.7864C68.1926 27.6719 68.276 27.5781 68.3906 27.5625C68.5104 27.5469 68.6197 27.6198 68.6301 27.7344C69.1979 32.0937 71.1406 35.8541 73.3385 39.5937C73.3958 39.6927 73.3697 39.8125 73.2708 39.8698C73.1666 39.9323 73.0364 39.9062 72.9739 39.8073ZM61.0572 55.8437C70.3437 56.6458 78.1926 56.9896 84.1458 56.7812L84.1614 57.2083C78.1874 57.4166 70.3229 57.0781 61.0156 56.2708C55.9999 55.8385 50.6979 55.276 45.2343 54.625C40.3697 54.0469 35.651 53.4271 31.2551 52.8073C29.7187 52.5937 25.6874 51.9896 25.6197 51.9791L25.6874 51.5677C25.7499 51.5781 29.7864 52.1771 31.3229 52.3958C35.7135 53.0156 40.427 53.625 45.2864 54.1979C50.7499 54.8489 56.0468 55.4114 61.0572 55.8437ZM68.7916 24.0208C68.7604 23.9062 68.8281 23.7969 68.9426 23.7656C69.052 23.7344 69.177 23.8021 69.2083 23.9114C70.4687 28.3437 72.4166 32.6823 75.9166 35.8073C76.8437 36.6354 77.8645 37.3333 78.9374 37.9583C79.0364 38.0208 79.0624 38.1406 78.9999 38.2396C78.9426 38.3437 78.8229 38.3802 78.7239 38.3229C77.6249 37.6823 76.5833 36.9791 75.6354 36.1302C72.0781 32.9531 70.0781 28.526 68.7916 24.0208Z" fill="#0A0A0A"/>
</g>
</svg>
